<?xml version="1.0" encoding="UTF-8"?>
<svg width="67px" height="71px" viewBox="0 0 67 71" version="1.1" xmlns="http://www.w3.org/2000/svg" xmlns:xlink="http://www.w3.org/1999/xlink">
    <title>0CEE1591-A2D5-4191-B2D4-B16A64F8EBE7</title>
    <g id="Designs" stroke="none" stroke-width="1" fill="none" fill-rule="evenodd">
        <g id="Empty-State---Appointment" transform="translate(-687.000000, -268.000000)" fill="#8BA6B9" fill-rule="nonzero">
            <g id="Group-2" transform="translate(636.000000, 220.000000)">
                <g id="monthly-calendar" transform="translate(51.000000, 48.000000)">
                    <path d="M61.1294612,8.57892017 L55.7394611,8.57892017 L55.7394611,4.9000001 C55.7394611,2.19382804 53.545633,0 50.839461,0 L50.643461,0 C47.9372889,0 45.7434609,2.19382804 45.7434609,4.9000001 L45.7434609,8.57892017 L20.4594604,8.57892017 L20.4594604,4.9000001 C20.4594604,2.19382804 18.2656324,0 15.5594603,0 L15.3634603,0 C12.6572882,0 10.4634602,2.19382804 10.4634602,4.9000001 L10.4634602,8.57892017 L5.0734601,8.57892017 C2.36728805,8.57892017 0.173460003,10.7727482 0.173460003,13.4789203 L0.173460003,66.0069213 C0.173460003,68.7134853 2.36728805,70.9069214 5.0734601,70.9069214 L61.1294612,70.9069214 C63.8356332,70.9069214 66.0294613,68.7134853 66.0294613,66.0069213 L66.0294613,13.4789203 C66.0294613,10.7727482 63.8354372,8.57892017 61.1294612,8.57892017 Z M57.7974611,63.1649212 L8.40546016,63.1649212 L8.40546016,23.3769205 L57.7974611,23.3769205 L57.7974611,63.1649212 Z" id="Shape"></path>
                    <path d="M15.1186563,41.3822648 L23.6442645,41.3822648 C24.0772285,41.3822648 24.4282645,41.0312288 24.4282645,40.5982648 L24.4282645,32.0726566 C24.4282645,31.6396926 24.0772285,31.2886566 23.6442645,31.2886566 L15.1186563,31.2886566 C14.6856923,31.2886566 14.3346563,31.6396926 14.3346563,32.0726566 L14.3346563,40.5982648 C14.3346563,41.0312288 14.6856923,41.3822648 15.1186563,41.3822648 Z" id="Path"></path>
                    <path d="M28.8386566,41.3822648 L37.3642647,41.3822648 C37.7972287,41.3822648 38.1482647,41.0312288 38.1482647,40.5982648 L38.1482647,32.0726566 C38.1482647,31.6396926 37.7972287,31.2886566 37.3642647,31.2886566 L28.8386566,31.2886566 C28.4056926,31.2886566 28.0546565,31.6396926 28.0546565,32.0726566 L28.0546565,40.5982648 C28.0546565,41.0312288 28.4056926,41.3822648 28.8386566,41.3822648 Z" id="Path"></path>
                    <path d="M42.5586568,41.3822648 L51.084265,41.3822648 C51.517229,41.3822648 51.868265,41.0312288 51.868265,40.5982648 L51.868265,32.0726566 C51.868265,31.6396926 51.517229,31.2886566 51.084265,31.2886566 L42.5586568,31.2886566 C42.1256928,31.2886566 41.7746568,31.6396926 41.7746568,32.0726566 L41.7746568,40.5982648 C41.7746568,41.0312288 42.1256928,41.3822648 42.5586568,41.3822648 Z" id="Path"></path>
                    <path d="M15.1186563,55.1022651 L23.6442645,55.1022651 C24.0772285,55.1022651 24.4282645,54.7512291 24.4282645,54.3182651 L24.4282645,45.7926569 C24.4282645,45.3596929 24.0772285,45.0086569 23.6442645,45.0086569 L15.1186563,45.0086569 C14.6856923,45.0086569 14.3346563,45.3596929 14.3346563,45.7926569 L14.3346563,54.3182651 C14.3346563,54.7512291 14.6856923,55.1022651 15.1186563,55.1022651 Z" id="Path"></path>
                    <path d="M28.8386566,55.1022651 L37.3642647,55.1022651 C37.7972287,55.1022651 38.1482647,54.7512291 38.1482647,54.3182651 L38.1482647,45.7926569 C38.1482647,45.3596929 37.7972287,45.0086569 37.3642647,45.0086569 L28.8386566,45.0086569 C28.4056926,45.0086569 28.0546565,45.3596929 28.0546565,45.7926569 L28.0546565,54.3182651 C28.0546565,54.7512291 28.4056926,55.1022651 28.8386566,55.1022651 Z" id="Path"></path>
                    <path d="M42.5586568,55.1022651 L51.084265,55.1022651 C51.517229,55.1022651 51.868265,54.7512291 51.868265,54.3182651 L51.868265,45.7926569 C51.868265,45.3596929 51.517229,45.0086569 51.084265,45.0086569 L42.5586568,45.0086569 C42.1256928,45.0086569 41.7746568,45.3596929 41.7746568,45.7926569 L41.7746568,54.3182651 C41.7746568,54.7512291 42.1256928,55.1022651 42.5586568,55.1022651 Z" id="Path"></path>
                </g>
            </g>
        </g>
    </g>
</svg>