<?xml version="1.0" encoding="UTF-8"?>
<svg width="18px" height="18px" viewBox="0 0 18 18" version="1.1" xmlns="http://www.w3.org/2000/svg" xmlns:xlink="http://www.w3.org/1999/xlink">
    <title>3B2FFC1B-CB0A-45CF-8B45-B9814FC00D45@1x</title>
    <g id="Designs" stroke="none" stroke-width="1" fill="none" fill-rule="evenodd">
        <g id="Create-Salon-Super-Admin" transform="translate(-548.000000, -967.000000)" fill-rule="nonzero">
            <g id="Group-5" transform="translate(402.000000, 166.000000)">
                <g id="Group-7" transform="translate(40.000000, 793.000000)">
                    <g id="cancel-24px" transform="translate(106.000000, 8.000000)">
                        <path d="M8.76000023,1.46000004 C4.72310012,1.46000004 1.46000004,4.72310012 1.46000004,8.76000023 C1.46000004,12.7969003 4.72310012,16.0600004 8.76000023,16.0600004 C12.7969003,16.0600004 16.0600004,12.7969003 16.0600004,8.76000023 C16.0600004,4.72310012 12.7969003,1.46000004 8.76000023,1.46000004 Z" id="Shape" fill="#C80000"></path>
                        <polygon id="Path" fill="#FFFFFF" points="12.4100003 11.3807003 11.3807003 12.4100003 8.76000023 9.78930026 6.13930016 12.4100003 5.11000013 11.3807003 7.7307002 8.76000023 5.11000013 6.13930016 6.13930016 5.11000013 8.76000023 7.7307002 11.3807003 5.11000013 12.4100003 6.13930016 9.78930026 8.76000023"></polygon>
                    </g>
                </g>
            </g>
        </g>
    </g>
</svg>