<?xml version="1.0" encoding="UTF-8"?>
<svg width="18px" height="18px" viewBox="0 0 18 18" version="1.1" xmlns="http://www.w3.org/2000/svg" xmlns:xlink="http://www.w3.org/1999/xlink">
    <title>899E5BA9-3A76-4984-BAC5-602A100AA5EB</title>
    <g id="Designs" stroke="none" stroke-width="1" fill="none" fill-rule="evenodd">
        <g id="Create-Appointment" transform="translate(-980.000000, -730.000000)">
            <g id="Group-5" transform="translate(402.000000, 236.000000)">
                <g id="cancel-24px" transform="translate(578.000000, 494.000000)">
                    <polygon id="ic_cancel" points="0 0 17.5200005 0 17.5200005 17.5200005 0 17.5200005"></polygon>
                    <path d="M8.76000023,1.46000004 C4.72310012,1.46000004 1.46000004,4.72310012 1.46000004,8.76000023 C1.46000004,12.7969003 4.72310012,16.0600004 8.76000023,16.0600004 C12.7969003,16.0600004 16.0600004,12.7969003 16.0600004,8.76000023 C16.0600004,4.72310012 12.7969003,1.46000004 8.76000023,1.46000004 Z" id="Shape" fill="#6E6E6E" fill-rule="nonzero"></path>
                    <polygon id="Path" fill="#FFFFFF" fill-rule="nonzero" points="12.4100003 11.3807003 11.3807003 12.4100003 8.76000023 9.78930026 6.13930016 12.4100003 5.11000013 11.3807003 7.7307002 8.76000023 5.11000013 6.13930016 6.13930016 5.11000013 8.76000023 7.7307002 11.3807003 5.11000013 12.4100003 6.13930016 9.78930026 8.76000023"></polygon>
                </g>
            </g>
        </g>
    </g>
</svg>