<?xml version="1.0" encoding="UTF-8"?>
<svg width="82px" height="77px" viewBox="0 0 82 77" version="1.1" xmlns="http://www.w3.org/2000/svg" xmlns:xlink="http://www.w3.org/1999/xlink">
    <title>ACA28899-7D9F-46BD-B696-4332E72E7F17</title>
    <g id="Designs" stroke="none" stroke-width="1" fill="none" fill-rule="evenodd">
        <g id="Empty-State---Chats" transform="translate(-851.000000, -397.000000)" fill="#8BA6B9" fill-rule="nonzero">
            <g id="Group-2" transform="translate(809.000000, 351.000000)">
                <g id="chat" transform="translate(42.000000, 46.000000)">
                    <path d="M53.3121608,15.6860802 C48.6873607,6.24272009 39.0129606,-0.00064000001 28.1612804,-0.00064000001 C12.6337602,-0.00064000001 0.00128000002,12.5601602 0.00128000002,27.99936 C0.00128000002,32.1952005 0.902080013,36.2168005 2.68000004,39.9664006 L0.0478400007,53.1288008 C-0.287200004,54.8043208 1.19088002,56.2852808 2.86672004,55.9537608 L16.1913602,53.3193608 C17.9854403,54.1704008 19.8414403,54.8176008 21.7484803,55.2635208 C17.4737603,35.0169605 32.8203205,16.0121602 53.3121608,15.6860802 Z" id="Path"></path>
                    <path d="M79.2425612,60.4464009 C79.7024012,59.4766409 80.1022412,58.4884809 80.4443212,57.4841609 L80.3564812,57.4841609 C86.3481613,39.8974406 73.7476811,21.4136003 55.1457608,20.5136003 C55.1454408,20.5126403 55.1452808,20.5116803 55.1449608,20.5107203 C39.1392006,19.7731203 25.8412804,32.5884805 25.8412804,48.4793607 C25.8412804,63.905601 38.3790406,76.4564811 53.8001608,76.4788811 C57.9830409,76.4732811 61.9923209,75.5728011 65.731041,73.7993611 C80.3241612,76.6844811 79.1860812,76.4793611 79.5212812,76.4793611 C81.0379212,76.4793611 82.1708812,75.0896011 81.8747212,73.6088011 L79.2425612,60.4464009 Z" id="Path"></path>
                </g>
            </g>
        </g>
    </g>
</svg>