<?xml version="1.0" encoding="UTF-8"?>
<svg width="82px" height="72px" viewBox="0 0 82 72" version="1.1" xmlns="http://www.w3.org/2000/svg" xmlns:xlink="http://www.w3.org/1999/xlink">
    <title>702B4DD4-CB5E-4FD2-A96D-88AB1D889191</title>
    <g id="Designs" stroke="none" stroke-width="1" fill="none" fill-rule="evenodd">
        <g id="Empty-State---No-Clients" transform="translate(-679.000000, -198.000000)" fill="#8BA6B9" fill-rule="nonzero">
            <g id="Group-2" transform="translate(636.000000, 150.000000)">
                <g id="customer" transform="translate(43.000000, 48.000000)">
                    <circle id="Oval" cx="40.96" cy="14.02096" r="13.92"></circle>
                    <circle id="Oval" cx="69.12" cy="19.1408" r="8.8"></circle>
                    <circle id="Oval" cx="12.8" cy="19.1408" r="8.8"></circle>
                    <path d="M21.4704,35.84336 C18.0064,33.00528 14.86928,33.38096 10.864,33.38096 C4.8736,33.38096 -2.27373675e-15,38.22576 -2.27373675e-15,44.17936 L-2.27373675e-15,61.65296 C-2.27373675e-15,64.23856 2.1104,66.34096 4.7056,66.34096 C15.90976,66.34096 14.56,66.54368 14.56,65.85776 C14.56,53.476 13.09344,44.39584 21.4704,35.84336 L21.4704,35.84336 Z" id="Path"></path>
                    <path d="M44.7696,33.4448 C37.77376,32.86128 31.69296,33.45152 26.448,37.7808 C17.67088,44.8112 19.36,54.27728 19.36,65.8576 C19.36,68.92144 21.8528,71.4608 24.9632,71.4608 C58.73632,71.4608 60.08048,72.55024 62.0832,68.1152 C62.74,66.61536 62.56,67.092 62.56,52.744 C62.56,41.34784 52.69232,33.4448 44.7696,33.4448 Z" id="Path"></path>
                    <path d="M71.056,33.3808 C67.0288,33.3808 63.90896,33.00896 60.4496,35.8432 C68.764,44.33216 67.36,52.7928 67.36,65.8576 C67.36,66.54784 66.23952,66.3408 77.0464,66.3408 C79.7344,66.3408 81.92,64.1632 81.92,61.4864 L81.92,44.1792 C81.92,38.2256 77.0464,33.3808 71.056,33.3808 Z" id="Path"></path>
                </g>
            </g>
        </g>
    </g>
</svg>