<?xml version="1.0" encoding="UTF-8"?>
<svg width="25px" height="24px" viewBox="0 0 25 24" version="1.1" xmlns="http://www.w3.org/2000/svg" xmlns:xlink="http://www.w3.org/1999/xlink">
    <title>D461D1AC-E181-4647-832A-2CC5E66993DC@1x</title>
    <g id="Designs" stroke="none" stroke-width="1" fill="none" fill-rule="evenodd">
        <g id="Salons-Super-Admin-" transform="translate(-1277.000000, -238.000000)">
            <g id="round-delete-24px" transform="translate(1277.000000, 238.000000)">
                <polygon id="delete" points="1.15463195e-13 0 24 0 24 24 1.15463195e-13 24"></polygon>
                <path d="M6,19 C6,20.1 6.9,21 8,21 L16,21 C17.1,21 18,20.1 18,19 L18,9 C18,7.9 17.1,7 16,7 L8,7 C6.9,7 6,7.9 6,9 L6,19 Z M18,4 L15.5,4 L14.79,3.29 C14.61,3.11 14.35,3 14.09,3 L9.91,3 C9.65,3 9.39,3.11 9.21,3.29 L8.5,4 L6,4 C5.45,4 5,4.45 5,5 C5,5.55 5.45,6 6,6 L18,6 C18.55,6 19,5.55 19,5 C19,4.45 18.55,4 18,4 Z" id="Shape" fill="#6E6E6E" fill-rule="nonzero"></path>
            </g>
        </g>
    </g>
</svg>