<?xml version="1.0" encoding="UTF-8"?>
<svg width="60px" height="78px" viewBox="0 0 60 78" version="1.1" xmlns="http://www.w3.org/2000/svg" xmlns:xlink="http://www.w3.org/1999/xlink">
    <title>A28AC2B3-F92D-4238-A436-426E2516B326</title>
    <g id="Designs" stroke="none" stroke-width="1" fill="none" fill-rule="evenodd">
        <g id="Empty-State---No-Salons-" transform="translate(-690.000000, -195.000000)" fill="#8BA6B9" fill-rule="nonzero">
            <g id="Group-2" transform="translate(636.000000, 150.000000)">
                <g id="list-document-interface-symbol" transform="translate(54.000000, 45.000000)">
                    <path d="M14.9132056,23.9702373 C25.9018472,23.9702373 36.9997734,23.9702373 47.9884151,23.9702373 C50.7501288,23.9702373 50.7501288,19.6898378 47.9884151,19.6898378 C36.9997734,19.6898378 25.9018472,19.6898378 14.9132056,19.6898378 C12.1549161,19.6898378 12.1549161,23.9702373 14.9132056,23.9702373 Z" id="Path"></path>
                    <path d="M15.0687171,37.2803995 C26.0573587,37.2803995 37.1552849,37.2803995 48.1439266,37.2803995 C50.9056404,37.2803995 50.9056404,33 48.1439266,33 C37.1552849,33 26.0573587,33 15.0687171,33 C12.3104276,33 12.3104276,37.2803995 15.0687171,37.2803995 Z" id="Path"></path>
                    <path d="M15.0687171,50.2803995 C26.0573587,50.2803995 37.1552849,50.2803995 48.1439266,50.2803995 C50.9056404,50.2803995 50.9056404,46 48.1439266,46 C37.1552849,46 26.0573587,46 15.0687171,46 C12.3104276,46 12.3104276,50.2803995 15.0687171,50.2803995 Z" id="Path"></path>
                    <path d="M15.0687171,64.2803995 C26.0573587,64.2803995 37.1552849,64.2803995 48.1439266,64.2803995 C50.9056404,64.2803995 50.9056404,60 48.1439266,60 C37.1552849,60 26.0573587,60 15.0687171,60 C12.3104276,60 12.3104276,64.2803995 15.0687171,64.2803995 Z" id="Path"></path>
                    <path d="M48.6784155,0 L0.306476605,0 L0.306476605,77.1447844 L59.7167097,77.1447844 L59.7167097,10.7009988 L48.6784155,0 Z M54.5802303,72.0065928 L5.44295603,72.0065928 L5.44295603,5.13647942 L46.0331286,5.13647942 L46.0331286,13.2863601 L54.5802303,13.2863601 L54.5802303,72.0065928 Z" id="Shape"></path>
                </g>
            </g>
        </g>
    </g>
</svg>