<?xml version="1.0" encoding="UTF-8"?>
<svg width="25px" height="24px" viewBox="0 0 25 24" version="1.1" xmlns="http://www.w3.org/2000/svg" xmlns:xlink="http://www.w3.org/1999/xlink">
    <title>55283FF0-8654-41E7-8934-4964B35AF215@1x</title>
    <g id="Designs" stroke="none" stroke-width="1" fill="none" fill-rule="evenodd">
        <g id="Salon---Providers" transform="translate(-148.000000, -418.000000)">
            <g id="User-Images" transform="translate(140.000000, 300.000000)">
                <g id="Group-4" transform="translate(0.000000, 110.000000)">
                    <g id="User" transform="translate(8.000000, 8.000000)">
                        <rect id="Bg" x="0" y="0" width="24" height="24"></rect>
                        <path d="M15.6461192,12.7154957 C17.6557673,11.1343694 18.4425126,8.45331109 17.6059064,6.03696337 C16.7693002,3.62061566 14.4931968,2 11.9361192,2 C9.3790415,2 7.10293813,3.62061566 6.26633194,6.03696337 C5.42972576,8.45331109 6.21647103,11.1343694 8.22611917,12.7154957 C4.80321605,14.0868419 2.41273605,17.2305921 2.00611917,20.8954957 C1.94536785,21.4477805 2.34383442,21.9447444 2.89611917,22.0054957 C3.44840392,22.0662471 3.94536785,21.6677805 4.00611917,21.1154957 C4.46075031,17.0682371 7.88340608,14.0085243 11.9561192,14.0085243 C16.0288323,14.0085243 19.451488,17.0682371 19.9061192,21.1154957 C19.9624343,21.6244307 20.3940874,22.008602 20.9061192,22.0054957 L21.0161192,22.0054957 C21.5617602,21.9427137 21.9546433,21.4516099 21.8961192,20.9054957 C21.4875367,17.229805 19.0836336,14.0797304 15.6461192,12.7154957 L15.6461192,12.7154957 Z M11.9361192,12.0054957 C9.72698017,12.0054957 7.93611917,10.2146347 7.93611917,8.00549573 C7.93611917,5.79635673 9.72698017,4.00549573 11.9361192,4.00549573 C14.1452582,4.00549573 15.9361192,5.79635673 15.9361192,8.00549573 C15.9361192,9.06636169 15.5146918,10.0837773 14.7645463,10.8339229 C14.0144008,11.5840684 12.9969851,12.0054957 11.9361192,12.0054957 Z" id="Shape" fill="#6E6E6E" fill-rule="nonzero"></path>
                    </g>
                </g>
            </g>
        </g>
    </g>
</svg>