<?xml version="1.0" encoding="UTF-8"?>
<svg width="44px" height="44px" viewBox="0 0 44 44" version="1.1" xmlns="http://www.w3.org/2000/svg" xmlns:xlink="http://www.w3.org/1999/xlink">
    <title>13A7FE60-A413-450E-9B0A-328A2E3B78A1</title>
    <g id="Designs" stroke="none" stroke-width="1" fill="none" fill-rule="evenodd">
        <g id="Salon-Details-Super-Admin-empty-siloutte" transform="translate(-1067.000000, -348.000000)">
            <g id="Group-5" transform="translate(553.000000, 236.000000)">
                <g id="Group-3" transform="translate(476.000000, 74.000000)">
                    <g id="insert_photo-24px-(1)" transform="translate(38.000000, 38.000000)">
                        <polygon id="details-empty-state" points="0 0 43.920001 0 43.920001 43.920001 0 43.920001"></polygon>
                        <path d="M34.7700008,9.15000021 L34.7700008,34.7700008 L9.15000021,34.7700008 L9.15000021,9.15000021 L34.7700008,9.15000021 M34.7700008,5.49000013 L9.15000021,5.49000013 C7.13700017,5.49000013 5.49000013,7.13700017 5.49000013,9.15000021 L5.49000013,34.7700008 C5.49000013,36.7830009 7.13700017,38.4300009 9.15000021,38.4300009 L34.7700008,38.4300009 C36.7830009,38.4300009 38.4300009,36.7830009 38.4300009,34.7700008 L38.4300009,9.15000021 C38.4300009,7.13700017 36.7830009,5.49000013 34.7700008,5.49000013 Z M25.8762006,21.7038005 L20.3862005,28.7859007 L16.4700004,24.0462006 L10.9800003,31.1100007 L32.9400008,31.1100007 L25.8762006,21.7038005 Z" id="Shape" fill="#6E6E6E" fill-rule="nonzero"></path>
                    </g>
                </g>
            </g>
        </g>
    </g>
</svg>