<?xml version="1.0" encoding="UTF-8"?>
<svg width="20px" height="20px" viewBox="0 0 20 20" version="1.1" xmlns="http://www.w3.org/2000/svg" xmlns:xlink="http://www.w3.org/1999/xlink">
    <title>D8F4A129-97CF-440D-995C-5B6FAA2B90C9</title>
    <g id="Designs" stroke="none" stroke-width="1" fill="none" fill-rule="evenodd">
        <g id="Super-Admin---Edit-Client-Details" transform="translate(-525.000000, -379.000000)" fill="#6E6E6E" fill-rule="nonzero">
            <g id="Group" transform="translate(370.000000, 353.000000)">
                <g id="moon" transform="translate(155.000000, 26.000000)">
                    <path d="M20,10.8864759 C19.49688,16.0133238 15.2204,20 10,20 C4.4656,20 0,15.5061336 0,9.93670185 C0,4.93645027 3.5852,0.823177788 8.3016,0 C6.0376,1.45603848 4.4648,4.0504775 4.4648,6.96178966 C4.4648,11.5822524 8.1758,15.252941 12.7038,15.252941 C15.8484,15.252941 18.6156,13.4808546 19.9992,10.8856709 L20,10.8864759 Z" id="Shape"></path>
                    <path d="M13.3333333,9.52380952 C13.5017545,8.1901895 14.1740583,7.30134503 15.2380952,7.11136146 C14.2296458,6.92050773 13.4453991,6.4765014 13.3333333,4.76190476 C13.2769601,6.47644083 12.4369496,6.92036842 11.4285714,7.11136146 C12.5490689,7.3022152 13.1656801,8.19103746 13.3333333,9.52380952 Z" id="Path"></path>
                    <path d="M10.4761905,5.71428571 C10.5266109,4.89821253 10.8770554,4.35414211 11.4285714,4.28571429 C10.9274902,4.14969993 10.4761905,3.87767769 10.4761905,2.85714286 C10.42577,3.87767769 10.0249067,4.14970209 9.52380952,4.28571429 C10.0753096,4.35414427 10.3759742,4.8981909 10.4761905,5.71428571 Z" id="Path"></path>
                </g>
            </g>
        </g>
    </g>
</svg>