<?xml version="1.0" encoding="UTF-8"?>
<svg width="85px" height="70px" viewBox="0 0 85 70" version="1.1" xmlns="http://www.w3.org/2000/svg" xmlns:xlink="http://www.w3.org/1999/xlink">
    <title>2ADFE736-B8BE-433C-8B58-7F014AA9C1FC</title>
    <g id="Designs" stroke="none" stroke-width="1" fill="none" fill-rule="evenodd">
        <g id="Empty-State---No-Anylitics" transform="translate(-678.000000, -199.000000)" fill="#8BA6B9">
            <g id="Graph" transform="translate(678.000000, 199.000000)">
                <path d="M33,15 L52,15 C53.6568542,15 55,16.3431458 55,18 L55,70 L55,70 L30,70 L30,18 C30,16.3431458 31.3431458,15 33,15 Z" id="Rectangle"></path>
                <path d="M63,42 L82,42 C83.6568542,42 85,43.3431458 85,45 L85,70 L85,70 L60,70 L60,45 C60,43.3431458 61.3431458,42 63,42 Z" id="Rectangle"></path>
                <path d="M3,0 L22,0 C23.6568542,1.39730022e-16 25,1.34314575 25,3 L25,70 L25,70 L0,70 L0,3 C2.41183085e-16,1.34314575 1.34314575,7.48448398e-16 3,0 Z" id="Rectangle"></path>
            </g>
        </g>
    </g>
</svg>