<?xml version="1.0" encoding="UTF-8"?>
<svg width="72px" height="72px" viewBox="0 0 72 72" version="1.1" xmlns="http://www.w3.org/2000/svg" xmlns:xlink="http://www.w3.org/1999/xlink">
    <title>F3959902-1A95-49BE-8E40-D5E658316541</title>
    <g id="Designs" stroke="none" stroke-width="1" fill="none" fill-rule="evenodd">
        <g id="Empty-State---Services" transform="translate(-684.000000, -268.000000)" fill="#8BA6B9" fill-rule="nonzero">
            <g id="Group-2" transform="translate(636.000000, 220.000000)">
                <g id="grooming-(1)" transform="translate(48.000000, 48.000000)">
                    <path d="M54.8799991,66.7799989 C54.8799991,69.4861988 57.073799,71.6799988 59.779999,71.6799988 C62.4861989,71.6799988 64.6799989,69.4861988 64.6799989,66.7799989 L64.6799989,26.8799995 L54.8799991,26.8799995 L54.8799991,66.7799989 Z" id="Path"></path>
                    <path d="M69.5799988,-3.97903925e-15 L61.8799992,-3.97903925e-15 L61.8799992,11.4206398 C61.8799992,12.5514198 61.011019,13.5244198 59.881499,13.5776198 C58.675539,13.6344598 57.679999,12.6734998 57.679999,11.4799998 L57.679999,-3.97903925e-15 L49.9799991,-3.97903925e-15 C48.8202392,-3.97903925e-15 47.8799992,0.940239984 47.8799992,2.09999996 L47.8799992,4.14511993 C47.8799992,10.7160198 50.1909791,17.0776197 54.4084791,22.1164996 L54.8799992,22.6799996 L64.6799989,22.6799996 L65.1515189,22.1166396 C69.3690188,17.0777597 71.6799988,10.7161598 71.6799988,4.14511993 L71.6799988,2.09999996 C71.6799988,0.940239984 70.7397588,-3.97903925e-15 69.5799988,-3.97903925e-15 Z" id="Path"></path>
                    <path d="M41.2999993,35.9799994 L34.2999994,35.9799994 C30.0542195,35.9799994 26.5999995,39.4342193 26.5999995,43.6799993 L26.5999995,61.179999 L48.9999992,61.179999 L48.9999992,43.6799993 C48.9999992,39.4342193 45.5457792,35.9799994 41.2999993,35.9799994 Z" id="Path"></path>
                    <path d="M26.5999995,69.5799988 C26.5999995,70.7397588 27.5402395,71.6799988 28.6999995,71.6799988 L46.8999992,71.6799988 C48.0597592,71.6799988 48.9999992,70.7397588 48.9999992,69.5799988 L48.9999992,65.3799989 L26.5999995,65.3799989 L26.5999995,69.5799988 Z" id="Path"></path>
                    <path d="M18.8999997,17.2489797 C18.8995797,14.7758797 17.6847997,11.9328998 15.6503197,9.64403984 C13.5553598,7.28713988 10.9047398,5.8799999 8.56001985,5.8799999 C7.07335988,5.8799999 5.7482599,6.44951989 4.82901992,7.48369987 C3.95303993,8.46943986 3.49369994,9.80321983 3.50027994,11.3415398 L3.49999994,31.7799995 L18.8999997,31.7799995 L18.8999997,17.2489797 Z" id="Path"></path>
                    <path d="M20.2999997,35.9799994 L2.09999996,35.9799994 C0.940239984,35.9799994 0,36.9202394 0,38.0799994 L0,42.2799993 L22.3999996,42.2799993 L22.3999996,38.0799994 C22.3999996,36.9202394 21.4597596,35.9799994 20.2999997,35.9799994 Z" id="Path"></path>
                    <path d="M0,63.9799992 C0,68.2257788 3.45421994,71.6799988 7.69999987,71.6799988 L14.6999997,71.6799988 C18.9457797,71.6799988 22.3999996,68.2257788 22.3999996,63.9799992 L22.3999996,46.4799992 L0,46.4799992 L0,63.9799992 Z" id="Path"></path>
                </g>
            </g>
        </g>
    </g>
</svg>