<svg width="32px" height="32px" viewBox="0 0 32 32" version="1.1" xmlns="http://www.w3.org/2000/svg" xmlns:xlink="http://www.w3.org/1999/xlink">
   	<path d="M16.0989691,31.7360825 C7.38969072,31.7360825 0.296907216,24.643299 0.296907216,15.9340206 C0.296907216,7.22474227 7.38969072,0.131958763 16.0989691,0.131958763 C24.8082474,0.131958763 31.9010309,7.22474227 31.9010309,15.9340206 C31.9010309,24.643299 24.8082474,31.7360825 16.0989691,31.7360825 Z M16.0989691,1.45154639 C8.11546392,1.45154639 1.61649485,7.95051546 1.61649485,15.9340206 C1.61649485,23.9175258 8.11546392,30.4164948 16.0989691,30.4164948 C24.0824742,30.4164948 30.5814433,23.9175258 30.5814433,15.9340206 C30.5814433,7.95051546 24.0824742,1.45154639 16.0989691,1.45154639 Z" fill="#d0963c"></path>
    <path d="M16.0989691,24.3134021 C13.2618557,24.3134021 10.5896907,23.257732 8.74226804,21.4103093 C8.47835052,21.1463918 8.47835052,20.7505155 8.74226804,20.4865979 C9.00618557,20.2226804 9.40206186,20.2226804 9.66597938,20.4865979 C11.2494845,22.0701031 13.5917526,22.9938144 16.0989691,22.9938144 C18.6061856,22.9938144 20.9154639,22.0701031 22.5319588,20.4865979 C22.7958763,20.2226804 23.1917526,20.2226804 23.4556701,20.4865979 C23.7195876,20.7505155 23.7195876,21.1463918 23.4556701,21.4103093 C21.6082474,23.257732 18.9360825,24.3134021 16.0989691,24.3134021 Z" fill="#d0963c"></path>
    <path d="M13.3278351,13.1958763 C13.1628866,13.1958763 12.9979381,13.1298969 12.8659794,12.9979381 C11.7773196,11.9092784 10.7216495,11.414433 9.69896907,11.4804124 C8.24742268,11.6123711 7.29072165,12.8989691 7.29072165,12.8989691 C7.09278351,13.1958763 6.66391753,13.2618557 6.36701031,13.0639175 C6.07010309,12.8659794 6.00412371,12.4371134 6.20206186,12.1402062 C6.26804124,12.0742268 7.48865979,10.3257732 9.56701031,10.1608247 C10.985567,10.028866 12.4041237,10.6886598 13.7896907,12.0412371 C14.0536082,12.3051546 14.0536082,12.7010309 13.7896907,12.9649485 C13.657732,13.1298969 13.4927835,13.1958763 13.3278351,13.1958763 Z" fill="#d0963c"></path>
    <path d="M25.0061856,13.1958763 C24.8082474,13.1958763 24.6103093,13.0969072 24.4783505,12.9319588 C24.4453608,12.8989691 23.5216495,11.6123711 22.0701031,11.5134021 C21.0474227,11.4474227 19.9917526,11.942268 18.9030928,13.0309278 C18.6391753,13.2948454 18.243299,13.2948454 17.9793814,13.0309278 C17.7154639,12.7670103 17.7154639,12.371134 17.9793814,12.1072165 C19.3649485,10.7216495 20.7835052,10.0948454 22.2020619,10.2268041 C24.2804124,10.3917526 25.5340206,12.1402062 25.5670103,12.2061856 C25.7649485,12.5030928 25.6989691,12.8989691 25.4020619,13.1298969 C25.2701031,13.1628866 25.1381443,13.1958763 25.0061856,13.1958763 Z" fill="#d0963c"></path>
</svg>