<?xml version="1.0" encoding="UTF-8"?>
<svg width="81px" height="85px" viewBox="0 0 81 85" version="1.1" xmlns="http://www.w3.org/2000/svg" xmlns:xlink="http://www.w3.org/1999/xlink">
    <title>EB6B1FCD-0D24-4309-A6A9-53A6EAC27F0B</title>
    <g id="Designs" stroke="none" stroke-width="1" fill="none" fill-rule="evenodd">
        <g id="Empty-State---Providers" transform="translate(-680.000000, -192.000000)" fill="#8BA6B9" fill-rule="nonzero">
            <g id="Group-2" transform="translate(636.000000, 150.000000)">
                <g id="help" transform="translate(44.000000, 42.000000)">
                    <path d="M28.8040793,26.9178535 L25.0608241,30.6611087 L28.5599504,34.160235 L32.3032056,30.4169798 C33.9098379,31.5351892 35.7617537,32.3223401 37.7611367,32.6825952 L37.7611367,37.9712855 L42.709696,37.9712855 L42.709696,32.6825952 C44.7090789,32.3223401 46.5608298,31.5351892 48.167627,30.4169798 L51.9108823,34.160235 L55.4100086,30.6611087 L51.6667534,26.9178535 C52.7849628,25.3112212 53.5721136,23.4593053 53.9323688,21.4600874 L59.2210591,21.4600874 L59.2210591,16.511528 L53.9323688,16.511528 C53.5721136,14.5121451 52.7849628,12.6602293 51.6665884,11.053597 L55.4098436,7.31050671 L51.9107173,3.8113804 L48.1674621,7.55447068 C46.5608298,6.43609627 44.708914,5.64911038 42.7095311,5.28869031 L42.7095311,0 L37.7609717,0 L37.7609717,5.28869031 C35.7615888,5.64911038 33.9096729,6.43609627 32.3030407,7.55447068 L28.5597854,3.8113804 L25.0606591,7.31050671 L28.8039144,11.053597 C27.6857049,12.6602293 26.8985541,14.5121451 26.538134,16.511528 L21.2494437,16.511528 L21.2494437,21.4600874 L26.538134,21.4600874 C26.898719,23.4593053 27.6857049,25.3112212 28.8040793,26.9178535 L28.8040793,26.9178535 Z M40.2352514,10.0125851 C45.182986,10.0125851 49.2083091,14.0379082 49.2083091,18.9856427 C49.2083091,23.9333773 45.182986,27.9585355 40.2352514,27.9585355 C35.2875168,27.9585355 31.2621937,23.9333773 31.2621937,18.9856427 C31.2621937,14.0379082 35.2875168,10.0125851 40.2352514,10.0125851 L40.2352514,10.0125851 Z" id="Shape"></path>
                    <path d="M75.9706128,40.1565693 C71.6802119,35.8661683 64.7174239,35.8410956 60.3930429,40.0772274 L42.1387972,58.331638 L29.5963437,58.331638 L29.5963437,53.3830787 L40.088939,53.3830787 L47.7036171,45.7684005 L24.1747021,45.7684005 C19.7828557,45.7684005 15.6864382,47.9366943 13.2167772,51.568442 L0.100455755,70.8572665 L20.3377541,84.4785059 L28.6501791,74.3225776 L50.7021142,74.3225776 L80.4192027,44.6054891 L75.9706128,40.1565693 Z" id="Path"></path>
                </g>
            </g>
        </g>
    </g>
</svg>