<?xml version="1.0" encoding="UTF-8"?>
<svg width="71px" height="80px" viewBox="0 0 71 80" version="1.1" xmlns="http://www.w3.org/2000/svg" xmlns:xlink="http://www.w3.org/1999/xlink">
    <title>B634E1D2-4164-427F-9B25-095685494A7A</title>
    <g id="Designs" stroke="none" stroke-width="1" fill="none" fill-rule="evenodd">
        <g id="Empty-State---Recommendation" transform="translate(-685.000000, -264.000000)" fill="#8BA6B9" fill-rule="nonzero">
            <g id="Group-2" transform="translate(636.000000, 220.000000)">
                <g id="like" transform="translate(49.000000, 44.000000)">
                    <path d="M58.4199523,13.9988921 L53.7532926,13.9988921 C52.4636309,13.9988921 51.4198852,15.0424825 51.4198852,16.3322995 C51.4198852,17.6219612 52.4634757,18.6657069 53.7532926,18.6657069 L58.4199523,18.6657069 C59.709614,18.6657069 60.7533597,17.6221165 60.7533597,16.3322995 C60.7532044,15.0424825 59.709614,13.9988921 58.4199523,13.9988921 Z" id="Path"></path>
                    <path d="M34.840583,5.95523457 L32.5073308,1.28857496 C31.9263853,0.135533246 30.5294458,-0.32695649 29.3764041,0.244984493 C28.2233624,0.821427725 27.7562152,2.22286943 28.3328137,3.37591115 L30.6662211,8.04257076 C31.2418881,9.19095497 32.6363435,9.66275971 33.7971477,9.08616123 C34.949879,8.509718 35.4170262,7.10827629 34.840583,5.95523457 Z" id="Path"></path>
                    <path d="M50.1302235,0.244984493 C48.981684,-0.32695649 47.5758953,0.135688496 46.9992968,1.28857496 L44.6658894,5.95523457 C44.0894462,7.10827629 44.5565934,8.50956275 45.7094799,9.08616123 C46.8736996,9.66431221 48.2664473,9.18707372 48.8404065,8.04257076 L51.173814,3.37591115 C51.7502572,2.22286943 51.28311,0.821427725 50.1302235,0.244984493 Z" id="Path"></path>
                    <path d="M25.7531797,13.9988921 L21.0865201,13.9988921 C19.7968584,13.9988921 18.7531127,15.0424825 18.7531127,16.3322995 C18.7531127,17.6219612 19.7967032,18.6657069 21.0865201,18.6657069 L25.7531797,18.6657069 C27.0428414,18.6657069 28.0865872,17.6221165 28.0865872,16.3322995 C28.0865872,15.0424825 27.0428414,13.9988921 25.7531797,13.9988921 Z" id="Path"></path>
                    <path d="M11.7532009,37.4879059 L2.41972643,37.4879059 C1.13115147,37.4879059 0.0863189974,38.5325831 0.0863189974,39.8213133 L0.0863189974,77.1545902 C0.0863189974,78.4431652 1.13099622,79.4879976 2.41972643,79.4879976 L11.7530456,79.4879976 C13.0416206,79.4879976 14.0864531,78.4433204 14.0864531,77.1545902 L14.0864531,39.8211581 C14.0864531,38.5325831 13.0419311,37.4879059 11.7532009,37.4879059 Z" id="Path"></path>
                    <path d="M70.0402592,43.6730657 C69.6286914,40.0534121 66.2475018,37.4879059 62.6045606,37.4879059 L44.4131424,37.4879059 C45.9591219,34.7196432 46.7889331,26.8899202 46.7521388,23.6914598 C46.6911256,18.3971244 42.3067105,14.1544526 37.0122199,14.1544526 L35.0868094,14.1544526 C33.7971477,14.1544526 32.753402,15.198043 32.753402,16.48786 C32.753402,21.8835736 30.6524038,31.6227163 26.6899582,35.5853172 C24.0229185,38.2523569 21.7429171,39.2187881 18.7532679,40.712914 L18.7532679,75.7245825 C23.3305036,77.2502242 29.1421319,79.4881529 38.0002309,79.4881529 L53.2637894,79.4881529 C58.293113,79.4881529 62.2100704,74.8301873 60.2612172,69.9087624 C63.2303734,69.0999099 65.4200193,66.376825 65.4200193,63.1547666 C65.4200193,62.2454674 65.2445868,61.3751359 64.9278768,60.5752879 C69.9314289,59.2120377 71.7731596,53.0338642 68.3003725,49.1546325 C69.5762169,47.7292823 70.2798099,45.7796529 70.0402592,43.6730657 Z" id="Path"></path>
                </g>
            </g>
        </g>
    </g>
</svg>