<?xml version="1.0" encoding="UTF-8"?>
<svg width="57px" height="63px" viewBox="0 0 57 63" version="1.1" xmlns="http://www.w3.org/2000/svg" xmlns:xlink="http://www.w3.org/1999/xlink">
    <title>6B8A44F4-31EB-4E5D-911F-12CA8B32CFD1@1x</title>
    <defs>
        <polygon id="path-1" points="0.8102 0.508 56.197 0.508 56.197 62.316 0.8102 62.316"></polygon>
    </defs>
    <g id="Designs" stroke="none" stroke-width="1" fill="none" fill-rule="evenodd">
        <g id="Forgot-Password" transform="translate(-1052.000000, -150.000000)">
            <g id="Logo" transform="translate(1052.000000, 150.000000)">
                <mask id="mask-2" fill="white">
                    <use xlink:href="#path-1"></use>
                </mask>
                <g id="Clip-8"></g>
                <path d="M51.6502,43.391 C51.6502,47.778 48.0812,51.348 43.6932,51.348 L13.3142,51.348 C8.9262,51.348 5.3572,47.778 5.3572,43.391 L5.3572,13.012 C5.3572,8.624 8.9262,5.055 13.3142,5.055 L43.6932,5.055 C48.0812,5.055 51.6502,8.624 51.6502,13.012 L51.6502,43.391 Z M43.6932,0.508 L13.3142,0.508 C6.4202,0.508 0.8102,6.117 0.8102,13.012 L0.8102,43.391 C0.8102,50.286 6.4202,55.895 13.3142,55.895 L24.4952,55.895 L24.4952,62.316 L30.9172,55.895 L43.6932,55.895 C50.5882,55.895 56.1972,50.286 56.1972,43.391 L56.1972,13.012 C56.1972,6.117 50.5882,0.508 43.6932,0.508 L43.6932,0.508 Z" id="Fill-7" fill="#8BA6B9" mask="url(#mask-2)"></path>
                <path d="M36.3474,20.5824 C35.5594,21.4684 34.7774,22.3474 34.0504,23.1634 C33.0694,22.6004 32.1804,21.9864 31.2074,21.5614 C30.1044,21.0804 28.9074,21.0254 27.7204,21.3144 C26.9454,21.5034 26.3474,21.9104 26.1874,22.7504 C26.0164,23.6504 26.3744,24.3514 27.1694,24.7364 C28.7654,25.5094 30.4374,26.1334 31.9944,26.9724 C33.1814,27.6124 34.3984,28.3364 35.3234,29.2924 C37.4334,31.4764 36.8994,35.5174 34.3964,37.4504 C30.4374,40.5104 23.1394,39.2504 20.3744,34.9824 C21.1994,34.0934 22.0334,33.1924 22.7454,32.4224 C24.0594,33.2634 25.2374,34.1934 26.5594,34.8154 C27.9664,35.4764 29.5084,35.4924 30.9754,34.7964 C31.7114,34.4474 32.1244,33.8764 32.1734,33.0474 C32.2224,32.1994 31.8354,31.5874 31.1054,31.2384 C29.5294,30.4834 27.9214,29.7944 26.3424,29.0444 C25.6474,28.7154 24.9844,28.3154 24.3184,27.9274 C20.5314,25.7204 20.9614,20.2144 24.7274,18.2384 C28.2844,16.3724 33.5304,17.2504 36.1464,20.2914 C36.2114,20.3674 36.2614,20.4564 36.3474,20.5824" id="Fill-10" fill="#EFA586" mask="url(#mask-2)"></path>
            </g>
        </g>
    </g>
</svg>