<?xml version="1.0" encoding="UTF-8"?>
<svg width="719px" height="850px" viewBox="0 0 719 850" version="1.1" xmlns="http://www.w3.org/2000/svg" xmlns:xlink="http://www.w3.org/1999/xlink">
    <title>19FDAD75-B82D-4DE5-9907-890120F8C5C3@1x</title>
    <defs>
        <rect id="path-1" x="0" y="0" width="719" height="850"></rect>
        <polygon id="path-3" points="0 872 1526 872 1526 0 0 0"></polygon>
    </defs>
    <g id="Designs" stroke="none" stroke-width="1" fill="none" fill-rule="evenodd">
        <g id="Logo-background">
            <mask id="mask-2" fill="white">
                <use xlink:href="#path-1"></use>
            </mask>
            <use id="bg" fill="#D8D8D8" xlink:href="#path-1"></use>
            <g id="Logo" mask="url(#mask-2)">
                <g transform="translate(-806.000000, -9.000000)">
                    <path d="M244.402653,324.540971 C228.493364,338.472537 211.223207,351.460865 193,363.01441 C265.662322,381.547023 336.329888,410.796224 402.874958,445.32401 C439.964127,464.569586 476.55239,485.737063 507.147519,514.184734 C549.587067,553.641265 578.599689,605.395302 600.129758,659.310371 C601.628042,659.084525 603.126325,658.849823 604.629042,658.637263 C726.836678,641.202879 865.964279,652.030176 953.175024,730 C968.122398,699.816418 987.342983,672.139278 1014.219,652.295876 C1065.4665,614.437977 1134.60476,612.064386 1197.90059,619.539428 C1232.11731,623.578076 1266.3429,630.030171 1300.57291,633.997965 C1291.58321,578.041431 1295.74117,519.937151 1313.61862,466.132791 C1332.69736,408.692762 1367.23767,356.668595 1412,315.932274 C1395.12436,311.791774 1378.35954,306.455621 1364.26327,296.420997 C1343.2873,281.493055 1330.29035,257.451584 1323.48158,232.630725 C1316.1985,206.073956 1315.58235,177.847702 1321.07458,150.87024 C1275.11982,127.683439 1231.55435,97.6149944 1180.80775,91.2248964 C1128.09299,84.5912395 1074.41188,105.501872 1033.54597,139.418547 C1027.63706,144.320722 1021.97195,149.50631 1016.43096,154.829178 C1059.79696,166.25873 1105.81378,183.236994 1109.79886,219.487405 C1116.08455,276.679447 1108.07007,335.372697 1086.69514,388.787363 C1070.57751,429.045423 1045.45245,467.731422 1007.55651,488.854616 C947.279411,522.452449 872.524811,504.110255 806.219112,484.962103 C777.179894,476.574822 745.897682,466.646479 728.467945,441.980611 C713.47181,420.755566 712.035586,392.914578 713.928388,367.004347 C716.552601,331.09049 724.660177,295.619467 737.679286,262.048204 C706.241927,256.977752 674.910955,249.241438 644.945283,241.057861 C583.209792,224.208018 517.028211,206.693924 454.228851,208.916952 C437.12714,212.920173 419.497927,215.240625 401.660373,216.08201 C386.562285,219.868243 371.809954,225.226537 357.540797,232.546587 C314.139333,254.803436 281.079572,292.408919 244.402653,324.540971" id="Fill-3" stroke="none" fill="#F1CBBC" fill-rule="evenodd"></path>
                    <path d="M244.402653,324.540971 C228.493364,338.472537 211.223207,351.460865 193,363.01441 C265.662322,381.547023 336.329888,410.796224 402.874958,445.32401 C439.964127,464.569586 476.55239,485.737063 507.147519,514.184734 C549.587067,553.641265 578.599689,605.395302 600.129758,659.310371 C601.628042,659.084525 603.126325,658.849823 604.629042,658.637263 C726.836678,641.202879 865.964279,652.030176 953.175024,730 C968.122398,699.816418 987.342983,672.139278 1014.219,652.295876 C1065.4665,614.437977 1134.60476,612.064386 1197.90059,619.539428 C1232.11731,623.578076 1266.3429,630.030171 1300.57291,633.997965 C1291.58321,578.041431 1295.74117,519.937151 1313.61862,466.132791 C1332.69736,408.692762 1367.23767,356.668595 1412,315.932274 C1395.12436,311.791774 1378.35954,306.455621 1364.26327,296.420997 C1343.2873,281.493055 1330.29035,257.451584 1323.48158,232.630725 C1316.1985,206.073956 1315.58235,177.847702 1321.07458,150.87024 C1275.11982,127.683439 1231.55435,97.6149944 1180.80775,91.2248964 C1128.09299,84.5912395 1074.41188,105.501872 1033.54597,139.418547 C1027.63706,144.320722 1021.97195,149.50631 1016.43096,154.829178 C1059.79696,166.25873 1105.81378,183.236994 1109.79886,219.487405 C1116.08455,276.679447 1108.07007,335.372697 1086.69514,388.787363 C1070.57751,429.045423 1045.45245,467.731422 1007.55651,488.854616 C947.279411,522.452449 872.524811,504.110255 806.219112,484.962103 C777.179894,476.574822 745.897682,466.646479 728.467945,441.980611 C713.47181,420.755566 712.035586,392.914578 713.928388,367.004347 C716.552601,331.09049 724.660177,295.619467 737.679286,262.048204 C706.241927,256.977752 674.910955,249.241438 644.945283,241.057861 C583.209792,224.208018 517.028211,206.693924 454.228851,208.916952 C437.12714,212.920173 419.497927,215.240625 401.660373,216.08201 C386.562285,219.868243 371.809954,225.226537 357.540797,232.546587 C314.139333,254.803436 281.079572,292.408919 244.402653,324.540971 Z" id="Stroke-5" stroke="#F0CBBC" stroke-width="0.5" fill="none"></path>
                    <path d="M1449.26705,616.478702 C1431.22422,628.359377 1409.59761,633.630319 1388.14798,636.055217 C1359.09718,639.340135 1330.0508,637.75309 1301,634.37951 C1306.93758,671.413525 1318.60038,707.507725 1335.8822,740.791348 C1355.29659,778.18001 1381.56886,812.549739 1393.31129,853.01053 C1395.01027,858.879938 1396.41282,864.904504 1397.67378,871 L1498.70119,871 C1507.71376,857.541146 1516.39891,843.74981 1525,829.856513 L1525,498 C1502.51505,540.198562 1488.69756,590.522974 1449.26705,616.478702" id="Fill-7" stroke="none" fill="#F3C082" fill-rule="evenodd"></path>
                    <path d="M1418.34863,317.512209 C1416.23431,317.0244 1414.11999,316.518852 1412.00566,316 C1367.2503,356.794176 1332.71194,408.892227 1313.62985,466.413833 C1295.75784,520.29904 1291.59569,578.485841 1300.58931,634.51741 C1329.68894,637.892165 1358.78858,639.484198 1387.89264,636.193701 C1409.38603,633.767957 1431.04786,628.495181 1449.12376,616.610368 C1488.62657,590.6456 1502.47383,540.303663 1525,498.09484 L1525,328.008982 C1489.69038,330.771758 1453.09532,325.538892 1418.34863,317.512209" id="Fill-9" stroke="none" fill="#F6EDEA" fill-rule="evenodd"></path>
                    <path d="M1525,871 L1525,830 C1516.49664,843.844844 1507.91016,857.588083 1499,871 L1525,871 Z" id="Fill-21" stroke="none" fill="#F3C082" fill-rule="evenodd"></path>
                    <path d="M1335.12708,740.046219 C1317.82251,706.827747 1306.14436,670.804198 1300.19896,633.842673 C1265.99298,629.882826 1231.78256,623.43646 1197.58543,619.396974 C1134.32584,611.928569 1065.22718,614.300053 1014.00902,652.124337 C987.148394,671.95012 967.938815,699.602684 953,729.759465 C986.337657,759.553445 1012.09515,799.147493 1026.39158,850.753815 C1028.15039,857.102844 1029.70984,863.527088 1031.10094,870 L1397,870 C1395.73738,863.916436 1394.33299,857.903662 1392.62734,852.045743 C1380.87388,811.66415 1354.56703,777.361696 1335.12708,740.046219" id="Fill-29" stroke="none" fill="#F3C082" fill-rule="evenodd"></path>
                    <path d="M1412,316.244074 C1414.11451,316.763005 1416.22902,317.264195 1418.34353,317.756515 C1453.09333,325.779992 1489.68722,331.018094 1525,328.254895 L1525,247 C1514.96826,250.756708 1505.03848,254.952512 1495.26829,259.676119 C1464.9337,274.343692 1436.89094,293.553023 1412,316.244074" id="Fill-31" stroke="none" fill="#F1CBBC" fill-rule="evenodd"></path>
                    <path d="M1412,316.244074 C1414.11451,316.763005 1416.22902,317.264195 1418.34353,317.756515 C1453.09333,325.779992 1489.68722,331.018094 1525,328.254895 L1525,247 C1514.96826,250.756708 1505.03848,254.952512 1495.26829,259.676119 C1464.9337,274.343692 1436.89094,293.553023 1412,316.244074 Z" id="Stroke-33" stroke="#F0CBBC" stroke-width="0.5" fill="none"></path>
                    <path d="M1341.94403,161.030853 C1334.7705,157.923325 1327.69025,154.541342 1320.66331,151 C1315.1599,177.967323 1315.77287,206.182969 1323.07521,232.729758 C1329.89783,257.541289 1342.92123,281.573724 1363.93988,296.500483 C1378.06485,306.526909 1394.86378,311.861056 1411.77376,316 C1436.71454,293.353115 1464.81344,274.181172 1495.20876,259.542147 C1504.99852,254.823308 1514.94374,250.640098 1525,246.890701 L1525,182.424988 C1463.60083,192.894082 1399.10571,185.80697 1341.94403,161.030853" id="Fill-35" stroke="none" fill="#8BA6B9" fill-rule="evenodd"></path>
                    <path d="M953.680533,730 C946.021405,745.374957 939.468498,761.394769 933.617528,777.388081 C922.359855,808.177746 912.799273,839.89936 900,870 L1032,870 C1030.60057,863.53819 1029.0412,857.124965 1027.27302,850.791242 C1012.94103,799.273433 987.107027,759.742878 953.680533,730" id="Fill-39" stroke="none" fill="#F1CBBC" fill-rule="evenodd"></path>
                    <path d="M953.680533,730 C946.021405,745.374957 939.468498,761.394769 933.617528,777.388081 C922.359855,808.177746 912.799273,839.89936 900,870 L1032,870 C1030.60057,863.53819 1029.0412,857.124965 1027.27302,850.791242 C1012.94103,799.273433 987.107027,759.742878 953.680533,730 Z" id="Stroke-41" stroke="#F0CBBC" stroke-width="0.5" fill="none"></path>
                    <path d="M953,730.576911 C865.801532,652.579343 726.693515,641.743148 604.503082,659.189156 C603.000578,659.401804 601.502505,659.632173 600,659.858112 C601.467048,663.526292 602.894206,667.198903 604.290338,670.884804 C628.48111,734.719119 643.164882,802.655772 647.428627,871 L899.446117,871 C912.215192,840.808393 921.753217,808.990915 932.98433,778.108202 C938.821495,762.066557 945.358943,745.998332 953,730.576911" id="Fill-43" stroke="none" fill="#EFA586" fill-rule="evenodd"></path>
                    <path d="M728.21196,442.405226 C745.658738,467.092893 776.971535,477.030012 806.039145,485.424705 C872.409672,504.589781 947.237361,522.952619 1007.56896,489.325091 C1045.50638,468.178796 1070.65601,429.458605 1086.7894,389.164964 C1108.18522,335.707521 1116.20755,276.962396 1109.9157,219.719806 C1105.92229,183.432924 1059.86492,166.439653 1016.45209,155 C988.081103,182.240647 963.268696,213.603292 930.367409,235.050981 C874.051409,271.758927 805.493379,273.292488 737.432307,262.313789 C724.400469,295.914724 716.284966,331.421529 713.658187,367.362695 C711.763535,393.300259 713.201163,421.161422 728.21196,442.405226" id="Fill-45" stroke="none" fill="#F3C082" fill-rule="evenodd"></path>
                    <path d="M896.61364,0 C875.04541,30.9999301 845.649499,56.8398546 812.038341,74.1595639 C749.279489,106.484959 673.684304,110.253005 605.987719,90.2336017 C566.481423,78.5570944 528.136425,58.125423 503.385706,25.1971404 C497.574783,17.4615651 492.67251,8.95908175 488.798561,0 L47,0 C48.7552444,5.36392326 50.6877862,10.6657846 52.8596795,15.8656871 C90.9475965,107.198671 179.702682,169.969873 274.290852,199.023718 C278.337666,200.264957 282.428804,201.426401 286.537671,202.547949 C323.774561,212.730537 363.245397,217.837346 401.754396,216.015386 C418.885758,211.719814 436.464797,209.476719 454.318647,208.842801 C517.112958,206.617438 583.289218,224.149931 645.024177,241.021907 C674.98744,249.214081 706.311461,256.958522 737.750725,262.029868 C805.735418,273.010395 874.220977,271.476579 930.481879,234.762519 C963.348387,213.311259 988.130133,181.943391 1016.47556,154.698207 C1022.0161,149.369747 1027.68075,144.178711 1033.58919,139.275819 C1074.45181,105.323515 1128.1286,84.390915 1180.83912,91.0315407 C1231.58164,97.4283517 1275.14362,127.528384 1321.09911,150.739543 C1328.11122,154.285938 1335.17209,157.668313 1342.33491,160.784708 C1399.37592,185.591745 1463.73045,192.693402 1525,182.20937 L1525,64.9034715 L1525,1.10824861 L1525,0 L896.61364,0 Z" id="Fill-47" stroke="none" fill="#EFA586" fill-rule="evenodd"></path>
                    <path d="M606.239137,89.7629298 C673.967154,109.677908 749.601874,105.929518 812.385431,73.7683267 C846.012195,56.5433695 875.421755,30.8382298 897,0 L628.433776,0 L489,0 C492.871313,8.90793998 497.775862,17.370483 503.589483,25.0612985 C528.356129,57.8222322 566.714497,78.142919 606.239137,89.7629298" id="Fill-49" stroke="none" fill="#F6EDEA" fill-rule="evenodd"></path>
                    <mask id="mask-4" fill="white">
                        <use xlink:href="#path-3"></use>
                    </mask>
                    <g id="Clip-74" stroke="none" fill="none"></g>
                </g>
            </g>
        </g>
    </g>
</svg>