<?xml version="1.0" encoding="UTF-8"?>
<svg width="328px" height="79px" viewBox="0 0 328 79" version="1.1" xmlns="http://www.w3.org/2000/svg" xmlns:xlink="http://www.w3.org/1999/xlink">
    <title>BE4C53D8-1A71-472F-A8D8-18E3C1639360</title>
    <g id="Designs" stroke="none" stroke-width="1" fill="none" fill-rule="evenodd">
        <g id="Login-Error" transform="translate(-206.000000, -387.000000)" fill="#FFFFFF">
            <g id="Logo" transform="translate(206.000000, 387.000000)">
                <polygon id="Fill-51" points="322.16295 19.2480367 320.54895 19.2480367 320.54895 23.3055367 319.78245 23.3055367 319.78245 19.2480367 318.16845 19.2480367 318.16845 18.5910367 322.16295 18.5910367"></polygon>
                <polygon id="Fill-53" points="327.90075 23.3056867 327.20025 23.3056867 327.20025 20.5771867 327.24975 19.2751867 327.24375 19.2751867 325.80675 23.3056867 325.17075 23.3056867 323.73525 19.2751867 323.72775 19.2751867 323.78475 20.5771867 323.78475 23.3056867 323.07675 23.3056867 323.07675 18.5896867 324.21375 18.5896867 325.16475 21.3196867 325.49325 22.4416867 325.50675 22.4416867 325.84275 21.3196867 326.78625 18.5896867 327.90075 18.5896867"></polygon>
                <path d="M5.7165,50.9692867 C3.402,49.7752867 1.497,48.1897867 -1.0658141e-14,46.2127867 L4.0845,41.6662867 C5.535,43.1647867 7.0215,44.3122867 8.5425,45.1042867 C10.062,45.8977867 11.7075,46.2937867 13.4775,46.2937867 C15.018,46.2937867 16.302,45.9892867 17.322,45.3757867 C18.3435,44.7607867 18.8535,43.8637867 18.8535,42.6787867 C18.8535,41.7157867 18.48,40.9717867 17.73,40.4452867 C16.9815,39.9202867 15.7905,39.3277867 14.157,38.6707867 L10.7535,37.2412867 C7.8045,36.0157867 5.6145,34.6777867 4.185,33.2257867 C2.7555,31.7737867 2.0415,29.8687867 2.0415,27.5062867 C2.0415,24.5122867 3.153,22.1542867 5.376,20.4292867 C7.599,18.7042867 10.413,17.8417867 13.8165,17.8417867 C18.6255,17.8417867 22.4835,19.5787867 25.389,23.0512867 L21.5085,27.5062867 C20.4645,26.4847867 19.263,25.6942867 17.901,25.1392867 C16.539,24.5857867 15.1335,24.3082867 13.68,24.3082867 C12.2745,24.3082867 11.163,24.5632867 10.3455,25.0732867 C9.5295,25.5817867 9.12,26.3242867 9.12,27.3022867 C9.12,28.1077867 9.4485,28.7647867 10.107,29.2747867 C10.764,29.7847867 11.91,30.3592867 13.545,30.9937867 L16.7445,32.2042867 C19.92,33.5377867 22.2345,34.9762867 23.6865,36.5152867 C25.1385,38.0557867 25.8645,40.0222867 25.8645,42.4132867 C25.8645,45.6787867 24.684,48.2197867 22.326,50.0362867 C19.965,51.8527867 17.016,52.7602867 13.4775,52.7602867 C10.6185,52.7602867 8.031,52.1632867 5.7165,50.9692867" id="Fill-55"></path>
                <path d="M62.2719,52.0122367 L53.6949,52.0122367 L39.1959,33.2262367 L52.2654,18.5907367 L61.1154,18.5907367 L47.6379,33.2937367 L62.2719,52.0122367 Z M31.8459,52.0122367 L38.9934,52.0122367 L38.9934,0.96123667 L31.8459,0.96123667 L31.8459,52.0122367 Z" id="Fill-57"></path>
                <path d="M70.78545,18.5904367 L77.93295,18.5904367 L72.63945,52.0119367 L65.49195,52.0119367 L70.78545,18.5904367 Z M72.36645,9.47043667 C71.55645,8.56293667 71.25645,7.45143667 71.46495,6.13443667 C71.67345,4.81893667 72.32745,3.69543667 73.42845,2.76543667 C74.52795,1.83543667 75.75795,1.37043667 77.12145,1.37043667 C78.43545,1.37043667 79.49745,1.83543667 80.30295,2.76543667 C81.10845,3.69543667 81.40695,4.81893667 81.19845,6.13443667 C80.98995,7.45143667 80.33745,8.56293667 79.24095,9.47043667 C78.14445,10.3779367 76.93695,10.8309367 75.62295,10.8309367 C74.25945,10.8309367 73.17495,10.3779367 72.36645,9.47043667 L72.36645,9.47043667 Z" id="Fill-59"></path>
                <path d="M112.3233,21.4834867 C114.1623,23.9119867 114.7653,27.1234867 114.1338,31.1149867 L110.8233,52.0129867 L103.6773,52.0129867 L106.8363,32.0689867 C107.2023,29.7544867 106.8273,27.8824867 105.7158,26.4529867 C104.6043,25.0234867 102.9588,24.3079867 100.7823,24.3079867 C98.5563,24.3079867 96.6168,25.0354867 94.9563,26.4874867 C93.2973,27.9394867 92.2893,29.7994867 91.9293,32.0689867 L88.7703,52.0129867 L81.6228,52.0129867 L86.9163,18.5899867 L93.5868,18.5899867 L93.0693,21.8584867 C96.0348,19.1809867 99.5808,17.8414867 103.7118,17.8414867 C107.6133,17.8414867 110.4843,19.0564867 112.3233,21.4834867" id="Fill-61"></path>
                <path d="M201.76455,18.9214867 L201.76455,25.0579867 L199.58505,25.0579867 C196.77255,25.0579867 194.43555,25.8589867 192.57555,27.4609867 C190.71405,29.0659867 189.78555,31.3324867 189.78555,34.2664867 L189.78555,52.0129867 L182.63655,52.0129867 L182.63655,18.5899867 L189.30705,18.5899867 L189.30705,23.2399867 C190.48605,21.7594867 191.92755,20.6119867 193.62855,19.8049867 C195.33255,18.9964867 197.13555,18.5899867 199.04205,18.5899867 C200.03955,18.5899867 200.94705,18.7024867 201.76455,18.9214867" id="Fill-63"></path>
                <path d="M263.1693,44.8521367 C264.7578,43.8906367 266.0043,42.5721367 266.9133,40.9011367 C267.8208,39.2286367 268.2738,37.3851367 268.2738,35.3706367 C268.2738,33.3096367 267.8208,31.4331367 266.9133,29.7366367 C266.0043,28.0416367 264.7578,26.7126367 263.1693,25.7526367 C261.5793,24.7911367 259.8333,24.3081367 257.9283,24.3081367 C255.9753,24.3081367 254.2053,24.7911367 252.6183,25.7526367 C251.0283,26.7126367 249.7818,28.0416367 248.8758,29.7366367 C247.9668,31.4331367 247.5138,33.3096367 247.5138,35.3706367 C247.5138,37.4331367 247.9668,39.2991367 248.8758,40.9701367 C249.7818,42.6411367 251.0193,43.9461367 252.5838,44.8851367 C254.1498,45.8256367 255.9078,46.2936367 257.8593,46.2936367 C259.8108,46.2936367 261.5793,45.8136367 263.1693,44.8521367 M248.9763,50.4126367 C246.2763,48.8466367 244.1433,46.7256367 242.5788,44.0481367 C241.0128,41.3721367 240.2313,38.4441367 240.2313,35.2671367 C240.2313,32.0451367 241.0128,29.1081367 242.5788,26.4531367 C244.1433,23.7981367 246.2763,21.6996367 248.9763,20.1561367 C251.6763,18.6141367 254.6373,17.8416367 257.8593,17.8416367 C261.1278,17.8416367 264.1218,18.6141367 266.8443,20.1561367 C269.5683,21.6996367 271.7118,23.8101367 273.2763,26.4876367 C274.8423,29.1651367 275.6253,32.0916367 275.6253,35.2671367 C275.6253,38.4441367 274.8423,41.3721367 273.2763,44.0481367 C271.7118,46.7256367 269.5683,48.8466367 266.8443,50.4126367 C264.1218,51.9786367 261.1278,52.7601367 257.8593,52.7601367 C254.6373,52.7601367 251.6763,51.9786367 248.9763,50.4126367" id="Fill-65"></path>
                <path d="M289.23765,50.9575867 C287.01465,49.7545867 285.26715,48.0295867 283.99665,45.7840867 C282.72465,43.5370867 282.09015,40.9405867 282.09015,37.9885867 L282.09015,18.5905867 L289.17015,18.5905867 L289.17015,38.6335867 C289.17015,40.9600867 289.88415,42.8170867 291.31365,44.2090867 C292.74315,45.6010867 294.54765,46.2940867 296.72415,46.2940867 C298.81215,46.2940867 300.55965,45.6010867 301.96665,44.2090867 C303.37215,42.8170867 304.07715,40.9600867 304.07715,38.6335867 L304.07715,18.5905867 L311.22315,18.5905867 L311.22315,37.9885867 C311.22315,40.9405867 310.58715,43.5370867 309.31815,45.7840867 C308.04615,48.0295867 306.31065,49.7545867 304.11015,50.9575867 C301.90815,52.1590867 299.44815,52.7605867 296.72415,52.7605867 C293.95665,52.7605867 291.46065,52.1590867 289.23765,50.9575867" id="Fill-67"></path>
                <path d="M168.89055,34.7109367 C168.90705,33.4899367 168.72555,32.2419367 168.31905,31.0074367 C166.35855,25.0359367 159.66855,22.4919367 153.95355,25.4184367 C150.28455,27.2964367 147.16005,31.9014367 147.81105,37.7049367 C148.39905,42.9489367 152.90955,46.8024367 158.16555,46.3104367 C164.27805,45.7404367 168.81705,40.5189367 168.89055,34.7109367 M176.27355,34.0974367 C176.32605,42.4884367 170.59155,49.9884367 162.84405,52.0989367 C157.03455,53.6799367 151.48455,53.1759367 146.64705,49.4049367 C141.20805,45.1629367 139.43355,39.3849367 140.60655,32.7144367 C141.98505,24.8754367 148.82805,18.8679367 156.39405,17.8419367 C164.33055,16.7649367 172.02555,20.5059367 175.08255,27.9894367 C175.94055,30.0894367 176.34405,32.2869367 176.27355,34.0974367" id="Fill-69"></path>
                <path d="M133.3977,1.41273667 C129.6942,3.19173667 126.9372,6.43473667 125.8317,10.3062367 C125.4627,11.6007367 125.1732,12.8907367 124.8657,14.2572367 L123.6807,19.2492367 L118.5402,19.2492367 L117.5637,25.6707367 L122.7702,25.6632367 L118.2282,52.0077367 L126.3267,52.0092367 L130.6587,27.3477367 C130.8342,26.3007367 131.3907,25.6332367 132.7317,25.6572367 L139.8372,25.6872367 L140.9952,19.2537367 L132.0432,19.2492367 L133.0167,14.3397367 C133.2342,13.1907367 133.4412,12.1092367 133.7382,11.0457367 C134.3082,9.00573667 135.3597,7.69473667 136.9512,7.04073667 C138.5217,6.39423667 139.9587,6.48423667 141.1077,7.30323667 C142.7532,8.47773667 142.2327,10.3527367 142.0632,10.9692367 L148.3737,10.9662367 C149.7522,7.51323667 148.9167,2.80923667 144.6297,1.01523667 C141.0957,-0.46526333 137.0007,-0.32126333 133.3977,1.41273667 Z" id="Fill-71"></path>
                <path d="M239.9574,18.5904367 L223.6884,58.5024367 C222.2829,61.6794367 220.6029,64.0044367 218.6529,65.4804367 C216.7014,66.9534367 214.2969,67.6914367 211.4364,67.6914367 C209.5764,67.6914367 207.7389,67.4649367 205.9254,67.0119367 L205.9254,60.9534367 C208.0104,61.1334367 209.3274,61.2264367 209.8719,61.2264367 C211.5504,61.2264367 212.9799,60.8724367 214.1604,60.1719367 C215.3409,59.4669367 216.3384,58.1844367 217.1559,56.3244367 L218.9949,51.6594367 L205.1769,18.5904367 L212.8659,18.5904367 L222.4344,42.7914367 L232.3344,18.5904367 L239.9574,18.5904367 Z" id="Fill-76"></path>
                <polygon id="Fill-77" points="176.2806 61.3623367 65.4921 61.3623367 65.4921 68.1993367 115.7946 68.1993367 115.7946 78.3033367 125.8986 68.1993367 176.2806 68.1993367"></polygon>
                <polygon id="Fill-73" points="65.4924 68.1993367 176.2809 68.1993367 176.2809 61.3623367 65.4924 61.3623367"></polygon>
                <polygon id="Fill-75" points="115.79355 66.7998367 115.79355 78.3033367 127.29855 66.7998367"></polygon>
            </g>
        </g>
    </g>
</svg>