<svg width="32px" height="32px" viewBox="0 0 32 32" version="1.1" xmlns="http://www.w3.org/2000/svg" xmlns:xlink="http://www.w3.org/1999/xlink">
    <path d="M16,31.9666667 C7.2,31.9666667 0.0333333333,24.8 0.0333333333,16 C0.0333333333,7.2 7.2,0.0333333333 16,0.0333333333 C24.8,0.0333333333 31.9666667,7.2 31.9666667,16 C31.9666667,24.8 24.8,31.9666667 16,31.9666667 Z M16,1.36666667 C7.93333333,1.36666667 1.36666667,7.93333333 1.36666667,16 C1.36666667,24.0666667 7.93333333,30.6333333 16,30.6333333 C24.0666667,30.6333333 30.6333333,24.0666667 30.6333333,16 C30.6333333,7.93333333 24.0666667,1.36666667 16,1.36666667 Z" fill="#d0963c"></path>
    <path d="M18,21.9333333 L14,21.9333333 C13.6333333,21.9333333 13.3333333,21.6333333 13.3333333,21.2666667 C13.3333333,20.9 13.6333333,20.6 14,20.6 L18,20.6 C18.3666667,20.6 18.6666667,20.9 18.6666667,21.2666667 C18.6666667,21.6333333 18.3666667,21.9333333 18,21.9333333 Z" fill="#d0963c"></path>
    <path d="M12.4,13 L6.8,13 C6.43333333,13 6.13333333,12.7 6.13333333,12.3333333 C6.13333333,11.9666667 6.43333333,11.6666667 6.8,11.6666667 L12.4,11.6666667 C12.7666667,11.6666667 13.0666667,11.9666667 13.0666667,12.3333333 C13.0666667,12.7 12.7666667,13 12.4,13 Z" fill="#d0963c"></path>
    <path d="M24.2333333,12.8666667 L18.6333333,12.8666667 C18.2666667,12.8666667 17.9666667,12.5666667 17.9666667,12.2 C17.9666667,11.8333333 18.2666667,11.5333333 18.6333333,11.5333333 L24.2333333,11.5333333 C24.6,11.5333333 24.9,11.8333333 24.9,12.2 C24.9,12.5666667 24.6,12.8666667 24.2333333,12.8666667 Z" fill="#d0963c"></path>
</svg>