<?xml version="1.0" encoding="UTF-8"?>
<svg width="21px" height="14px" viewBox="0 0 21 14" version="1.1" xmlns="http://www.w3.org/2000/svg" xmlns:xlink="http://www.w3.org/1999/xlink">
    <title>DFE0BCBC-B40F-48ED-B217-E3405586D508</title>
    <g id="Designs" stroke="none" stroke-width="1" fill="none" fill-rule="evenodd">
        <g id="Super-Admin---Edit-Client-Details" transform="translate(-528.000000, -252.000000)" fill="#6E6E6E" fill-rule="nonzero">
            <g id="Group" transform="translate(370.000000, 224.000000)">
                <g id="morning" transform="translate(158.000000, 28.000000)">
                    <path d="M10.3465547,0.00335148656 C10.0491609,0.0354174188 9.82608675,0.285312596 9.83286405,0.578319015 L9.83286405,3.69206597 C9.83061111,3.84355259 9.89031828,3.98951372 9.99846672,4.09787212 C10.1077428,4.20512938 10.2553178,4.26594369 10.4096615,4.26594369 C10.5640052,4.26594369 10.7115831,4.20512938 10.8208563,4.09787212 C10.9290048,3.98951089 10.9887114,3.84355259 10.986459,3.69206597 L10.986459,0.578319015 C10.9898387,0.415775763 10.9222448,0.258763657 10.7994516,0.148197334 C10.6766584,0.0387293133 10.5121834,-0.0143459189 10.3465836,0.0033458252 L10.3465547,0.00335148656 Z M3.99290576,1.70175892 C3.79913836,1.72276793 3.62903672,1.83997531 3.54228724,2.01137859 C3.45441591,2.18276772 3.46117591,2.38621711 3.56031199,2.55096263 L5.00229124,5.09857378 C5.15662916,5.37168901 5.50810872,5.47120437 5.78638188,5.31972058 C6.06465503,5.16823679 6.16602617,4.82324778 6.01169113,4.55011556 L4.56971188,2.00250441 C4.45931107,1.794625 4.23061604,1.6752213 3.99292018,1.70174476 L3.99290576,1.70175892 Z M7.4447157,1.70175892 C7.27122829,1.7238736 7.11802088,1.8211796 7.02677243,1.96824187 C6.93664873,2.11419735 6.91749636,2.29221309 6.97607821,2.45364672 L7.55286991,4.15205415 C7.65538598,4.45060587 7.9832142,4.61093553 8.2873853,4.51030489 C8.5915564,4.40967425 8.75490381,4.08791096 8.65237909,3.78935924 L8.07558739,2.09095181 C7.98996843,1.82778641 7.72409052,1.66303806 7.44472146,1.70173344 L7.4447157,1.70175892 Z M13.2397419,1.70175892 C13.009925,1.72276793 12.8150213,1.8753588 12.7440471,2.09097729 L12.1672554,3.78938472 C12.0647394,4.08793644 12.2280896,4.40969972 12.5322492,4.51033036 C12.8364088,4.610961 13.1642399,4.45062002 13.2667646,4.15207962 L13.8435563,2.45367219 C13.9100229,2.27011964 13.875101,2.06666175 13.752305,1.91408815 C13.6306365,1.76149757 13.4368576,1.68188472 13.239739,1.70178722 L13.2397419,1.70175892 Z M16.7004921,1.70175892 C16.50898,1.72166199 16.3388726,1.834447 16.2498736,2.00251857 L14.8078944,4.55012971 C14.6535564,4.82324495 14.7549478,5.16823679 15.0332036,5.31973473 C15.3114595,5.47123267 15.6629448,5.37170317 15.8172942,5.09858793 L17.2592735,2.55097678 C17.3696743,2.36632027 17.3640419,2.13744288 17.2457549,1.95718524 C17.1274665,1.77805704 16.9168106,1.67964565 16.7005138,1.70176175 L16.7004921,1.70175892 Z M2.27175933,4.53243797 C2.0475777,4.55344698 1.85606555,4.70161633 1.78284184,4.91058838 C1.70849051,5.12067855 1.76594357,5.35288198 1.92929214,5.50548389 L3.08287554,6.63775551 C3.19102398,6.74722353 3.33860191,6.80915945 3.49407034,6.80915945 C3.64840827,6.8102503 3.7971167,6.74943429 3.90638989,6.64107307 C4.01566596,6.53271184 4.07537255,6.38675354 4.0731173,6.23416295 C4.07086406,6.08267633 4.00665071,5.93781916 3.89399752,5.83277266 L2.74041412,4.70050104 C2.61874568,4.57776563 2.44639455,4.51584453 2.27177086,4.53242947 L2.27175933,4.53243797 Z M18.4129867,4.53243797 C18.2856859,4.55012971 18.1685251,4.60984005 18.0795434,4.70050953 L16.92596,5.83278115 C16.8133068,5.93782482 16.7490926,6.08267633 16.7468402,6.23417144 C16.7445873,6.38676203 16.8042944,6.53272316 16.9135676,6.64108156 C17.0228437,6.74944278 17.1715464,6.81025992 17.3258872,6.80916797 C17.4813498,6.80916797 17.6289335,6.74723202 17.737082,6.637764 L18.8906654,5.50549238 C19.0742928,5.33631402 19.124987,5.06982257 19.0157109,4.84648199 C18.9064349,4.6242284 18.6619646,4.49706297 18.4130213,4.53244646 L18.4129867,4.53243797 Z M10.4100018,5.10738568 C6.15039512,5.10738568 2.64926949,8.35928959 2.35279856,12.467171 L0.604398716,12.467171 C0.586373975,12.4660654 0.568349235,12.4660654 0.550324494,12.467171 C0.397114198,12.4738056 0.252930693,12.5401488 0.150405968,12.6518275 C0.0467622674,12.7623995 -0.00618432684,12.9094646 0.0005756719,13.0598416 C0.00733567064,13.2102186 0.0749270061,13.3517412 0.188707821,13.4523719 C0.301361008,13.5541008 0.451194188,13.6060693 0.6044016,13.5994342 L20.2153194,13.5994342 C20.3696574,13.6016455 20.5183658,13.5430414 20.6287637,13.4368909 C20.7380398,13.3296336 20.7999988,13.184785 20.7999988,13.0332927 C20.7999988,12.8818004 20.7380398,12.7369489 20.6287637,12.6296945 C20.5183629,12.523544 20.3696574,12.4649404 20.2153194,12.4671512 L18.4669196,12.4671512 C18.1706505,8.35926977 14.669323,5.10738568 10.4097163,5.10738568 L10.4100018,5.10738568 Z M0.568493433,6.79698121 C0.315019436,6.81135568 0.100974919,6.98606207 0.0401522345,7.22820685 C-0.0195543585,7.47036295 0.0885940855,7.72247172 0.307143345,7.84962582 L1.7491226,8.69882954 C1.87980053,8.79392337 2.04426691,8.83151762 2.20424009,8.80055848 C2.36421327,8.76959935 2.50278747,8.67450551 2.58725862,8.53849988 C2.67174995,8.40138745 2.69315469,8.23663626 2.64696521,8.08403436 C2.60077573,7.93033698 2.49037492,7.80428401 2.34391885,7.73461533 L0.901939599,6.88541162 C0.802803525,6.82349052 0.686770339,6.79253138 0.568496317,6.7969529 L0.568493433,6.79698121 Z M20.170471,6.79698121 C20.0803473,6.80693274 19.9936036,6.83678622 19.9181246,6.88543993 L18.4761454,7.73464364 C18.3296951,7.80430382 18.2192943,7.93035962 18.173099,8.08406266 C18.1269095,8.23665325 18.1483149,8.40141009 18.2328056,8.53852818 C18.3172969,8.67453382 18.4558625,8.76962765 18.6158241,8.80058679 C18.7757858,8.83154593 18.9402695,8.79395253 19.0709416,8.69885785 L20.5129209,7.84965413 C20.7461149,7.71585926 20.8531415,7.44164005 20.7708996,7.18843581 C20.6886607,6.93632987 20.4397058,6.77379794 20.1704595,6.79700951 L20.170471,6.79698121 Z" id="Shape"></path>
                </g>
            </g>
        </g>
    </g>
</svg>