<?xml version="1.0" encoding="UTF-8"?>
<svg width="60px" height="78px" viewBox="0 0 60 78" version="1.1" xmlns="http://www.w3.org/2000/svg" xmlns:xlink="http://www.w3.org/1999/xlink">
    <title>3B2263D6-FF7C-499C-B54D-6C3DB3B7AC2B</title>
    <g id="Designs" stroke="none" stroke-width="1" fill="none" fill-rule="evenodd">
        <g id="Empty-State--No-Product-Lines" transform="translate(-690.000000, -195.000000)" fill="#8BA6B9" fill-rule="nonzero">
            <g id="Group-2" transform="translate(636.000000, 150.000000)">
                <g id="list-document-interface-symbol" transform="translate(54.000000, 45.000000)">
                    <path d="M27.13472,24.08 C38.17368,24.08 37.1692,24.08 48.20816,24.08 C50.98252,24.08 50.98252,19.78 48.20816,19.78 C37.1692,19.78 38.17368,19.78 27.13472,19.78 C24.3638,19.78 24.3638,24.08 27.13472,24.08 Z" id="Path"></path>
                    <path d="M48.20816,33.39724 C37.1692,33.39724 38.17368,33.39724 27.13472,33.39724 C24.36208,33.39724 24.36208,37.69724 27.13472,37.69724 C38.17368,37.69724 37.1692,37.69724 48.20816,37.69724 C50.98424,37.69724 50.98424,33.39724 48.20816,33.39724 Z" id="Path"></path>
                    <path d="M48.20816,46.268 C37.1692,46.268 38.17368,46.268 27.13472,46.268 C24.36208,46.268 24.36208,50.568 27.13472,50.568 C38.17368,50.568 37.1692,50.568 48.20816,50.568 C50.98424,50.568 50.98424,46.268 48.20816,46.268 Z" id="Path"></path>
                    <path d="M48.20816,59.88352 C37.1692,59.88352 38.17368,59.88352 27.13472,59.88352 C24.36208,59.88352 24.36208,64.18352 27.13472,64.18352 C38.17368,64.18352 37.1692,64.18352 48.20816,64.18352 C50.98424,64.18352 50.98424,59.88352 48.20816,59.88352 Z" id="Path"></path>
                    <path d="M19.26744,18.69984 L13.27496,18.69984 C13.05824,18.69984 12.88108,18.83228 12.88108,18.99568 L12.88108,25.03804 C12.88108,25.19972 13.05652,25.33216 13.27496,25.33216 L19.26744,25.33216 C19.48416,25.33216 19.66132,25.19972 19.66132,25.03804 L19.66132,18.99568 C19.66132,18.83228 19.48588,18.69984 19.26744,18.69984 Z" id="Path"></path>
                    <path d="M18.90108,32.11756 L12.9086,32.11756 C12.69188,32.11756 12.51472,32.25 12.51472,32.4134 L12.51472,38.45576 C12.51472,38.61744 12.69016,38.74988 12.9086,38.74988 L18.90108,38.74988 C19.1178,38.74988 19.29496,38.61744 19.29496,38.45576 L19.29496,32.4134 C19.29496,32.25 19.11952,32.11756 18.90108,32.11756 Z" id="Path"></path>
                    <path d="M18.90108,45.16892 L12.9086,45.16892 C12.69188,45.16892 12.51472,45.30136 12.51472,45.46648 L12.51472,51.50712 C12.51472,51.67052 12.69016,51.80296 12.9086,51.80296 L18.90108,51.80296 C19.1178,51.80296 19.29496,51.67052 19.29496,51.50712 L19.29496,45.46648 C19.29496,45.30308 19.11952,45.16892 18.90108,45.16892 Z" id="Path"></path>
                    <path d="M18.90108,58.71908 L12.9086,58.71908 C12.69188,58.71908 12.51472,58.85152 12.51472,59.01492 L12.51472,65.059 C12.51472,65.22068 12.69016,65.3514 12.9086,65.3514 L18.90108,65.3514 C19.1178,65.3514 19.29496,65.22068 19.29496,65.059 L19.29496,59.01492 C19.29496,58.85152 19.11952,58.71908 18.90108,58.71908 Z" id="Path"></path>
                    <path d="M48.90132,0 L0.30788,0 L0.30788,77.49804 L59.99016,77.49804 L59.99016,10.75 L48.90132,0 Z M54.83016,72.33632 L5.46788,72.33632 L5.46788,5.16 L46.24392,5.16 L46.24392,13.3472 L54.83016,13.3472 L54.83016,72.33632 Z" id="Shape"></path>
                </g>
            </g>
        </g>
    </g>
</svg>