<?xml version="1.0" encoding="UTF-8"?>
<svg width="69px" height="58px" viewBox="0 0 69 58" version="1.1" xmlns="http://www.w3.org/2000/svg" xmlns:xlink="http://www.w3.org/1999/xlink">
    <title>203053BC-54A7-4A8E-94A3-8F3B2F92A996</title>
    <g id="Designs" stroke="none" stroke-width="1" fill="none" fill-rule="evenodd">
        <g id="Quotes-empty-state" transform="translate(-686.000000, -206.000000)" fill="#8BA6B9" fill-rule="nonzero">
            <g id="Group-2" transform="translate(636.000000, 150.000000)">
                <g id="right-quotation-mark" transform="translate(50.000000, 56.000000)">
                    <path d="M23.6813741,0.0787679937 L7.89379137,0.0787679937 C5.70081555,0.0787679937 3.8371677,0.846287933 2.30198382,2.38089581 C0.767519939,3.91579169 0,5.77943954 0,7.97255937 L0,23.7595661 C0,25.9525419 0.767087939,27.8159018 2.30198382,29.3505097 C3.8370237,30.8849735 5.70124755,31.6527815 7.89379137,31.6527815 L17.1030226,31.6527815 C18.1990066,31.6527815 19.1311185,32.0366855 19.8986384,32.8039174 C20.6661584,33.5707173 21.0497743,34.5031173 21.0497743,35.5999652 L21.0497743,36.9148291 C21.0497743,39.8203168 20.0217584,42.2999966 17.9663026,44.3560285 C15.9107027,46.4110523 13.4304469,47.4389242 10.5246712,47.4389242 L7.89379137,47.4389242 C7.18070343,47.4389242 6.56423948,47.6999962 6.04324752,48.2204122 C5.52268756,48.7408281 5.26219158,49.3577241 5.26219158,50.07038 L5.26219158,55.3334356 C5.26219158,56.0449395 5.52268756,56.6629875 6.04324752,57.1835475 C6.56467148,57.7038194 7.18055943,57.9650354 7.89379137,57.9650354 L10.5248152,57.9650354 C13.3755829,57.9650354 16.0958867,57.4091954 18.6861585,56.2995315 C21.2762863,55.1897236 23.5167821,53.6886677 25.408078,51.7973719 C27.2989418,49.905932 28.7997097,47.6658682 29.9096616,45.0755964 C31.0194695,42.4854686 31.5745895,39.7653088 31.5745895,36.9149731 L31.5745895,7.97198337 C31.5745895,5.77886354 30.8070696,3.91535969 29.2724617,2.38075181 C27.7378538,0.846143933 25.8737739,0.0787679937 23.6813741,0.0787679937 Z" id="Path"></path>
                    <path d="M66.1088107,2.38089581 C64.5743469,0.846287933 62.710555,0.0787679937 60.5175792,0.0787679937 L44.7305724,0.0787679937 C42.5375966,0.0787679937 40.6739488,0.846287933 39.1393409,2.38089581 C37.604877,3.91593569 36.8376451,5.77943954 36.8376451,7.97255937 L36.8376451,23.7595661 C36.8376451,25.9525419 37.604877,27.8159018 39.1393409,29.3505097 C40.6739488,30.8849735 42.5377406,31.6527815 44.7305724,31.6527815 L53.9398037,31.6527815 C55.0357876,31.6527815 55.9686196,32.0366855 56.7359955,32.8039174 C57.5026514,33.5711493 57.8871314,34.5031173 57.8871314,35.5999652 L57.8871314,36.9148291 C57.8871314,39.8203168 56.8591155,42.2999966 54.8032276,44.3560285 C52.7477718,46.4110523 50.268092,47.4389242 47.3620282,47.4389242 L44.7305724,47.4389242 C44.0180605,47.4389242 43.4010206,47.6999962 42.8806046,48.2204122 C42.3597566,48.7408281 42.0989727,49.3577241 42.0989727,50.07038 L42.0989727,55.3334356 C42.0989727,56.0449395 42.3597566,56.6629875 42.8806046,57.1835475 C43.4008766,57.7038194 44.0179165,57.9650354 44.7305724,57.9650354 L47.3620282,57.9650354 C50.212364,57.9650354 52.9325238,57.4091954 55.5230836,56.2995315 C58.1127794,55.1897236 60.3529872,53.6886677 62.2444271,51.7973719 C64.1357229,49.905932 65.6373548,47.6652922 66.7465867,45.0755964 C67.8562506,42.4860446 68.4116586,39.7653088 68.4116586,36.9149731 L68.4116586,7.97198337 C68.4112266,5.77886354 67.6444266,3.91535969 66.1088107,2.38089581 Z" id="Path"></path>
                </g>
            </g>
        </g>
    </g>
</svg>