<?xml version="1.0" encoding="UTF-8"?>
<svg width="64px" height="81px" viewBox="0 0 64 81" version="1.1" xmlns="http://www.w3.org/2000/svg" xmlns:xlink="http://www.w3.org/1999/xlink">
    <title>9EC29679-8A0E-441A-A116-297A08336115</title>
    <g id="Designs" stroke="none" stroke-width="1" fill="none" fill-rule="evenodd">
        <g id="Empty-State---Rewards" transform="translate(-688.000000, -264.000000)" fill="#8BA6B9" fill-rule="nonzero">
            <g id="Group-2" transform="translate(636.000000, 220.000000)">
                <g id="badge" transform="translate(52.000000, 44.000000)">
                    <path d="M31.7332703,68.0585963 C25.2753927,68.0585963 19.2067975,66.3638511 13.9452014,63.3985184 L13.9452014,78.1127017 C13.9452014,78.9000639 14.3443808,79.6336994 15.0055953,80.0609988 C15.6664956,80.4884554 16.4994154,80.5512936 17.2174985,80.2284625 L31.7332703,73.6964359 L46.2490422,80.2284625 C46.5530218,80.3651355 46.8774238,80.4328437 47.2008832,80.4328437 C47.6413787,80.4328437 48.0796749,80.3074815 48.4609454,80.0609988 C49.1220028,79.6335423 49.5213393,78.8999068 49.5213393,78.1127017 L49.5213393,63.3985184 C44.2597432,66.363694 38.191148,68.0585963 31.7332703,68.0585963 Z" id="Path"></path>
                    <path d="M40.8217104,30.619464 L44.0143602,24.6185769 L37.221241,24.3830909 C36.4500597,24.3563847 35.7423449,23.9477795 35.3337398,23.293163 L31.7332703,17.527919 L28.1328009,23.2933201 C27.7240387,23.9479366 27.016481,24.3563847 26.2452997,24.383248 L19.4521805,24.618734 L22.6448303,30.619464 C23.0074065,31.3007867 23.0074065,32.1176828 22.6448303,32.7990055 L19.4521805,38.7997355 L26.2452997,39.0352215 C27.016481,39.0619277 27.7241958,39.4705329 28.1328009,40.1251494 L31.7332703,45.8903934 L35.3337398,40.1249923 C35.742502,39.4703758 36.4500597,39.0619277 37.221241,39.0350644 L44.0143602,38.7995784 L40.8217104,32.7988484 C40.4591342,32.1176828 40.4591342,31.3007867 40.8217104,30.619464 Z" id="Path"></path>
                    <path d="M31.7332703,-2.09610107e-13 C14.2488668,-2.09610107e-13 0.0241926913,14.224517 0.0241926913,31.7090777 C0.0241926913,42.7367033 5.68386859,52.4657784 14.2498093,58.1488615 C14.334798,58.2051016 14.4196295,58.2614989 14.5052465,58.3171107 C14.6087723,58.3841904 14.7124553,58.4509559 14.8167666,58.5167789 C14.9031691,58.5716052 14.9900429,58.6254889 15.0769166,58.6793726 C15.1804425,58.7434676 15.2834971,58.8078767 15.3878084,58.8708719 C15.5263665,58.9546038 15.6660244,59.0369218 15.8059964,59.1184543 C15.9366997,59.1946455 16.0683457,59.2697371 16.2003058,59.3442004 C16.2948772,59.3976128 16.3892916,59.450711 16.4843343,59.5031809 C16.5886456,59.5605207 16.6931141,59.6173893 16.7982109,59.6736294 C16.8952958,59.7257851 16.9930092,59.7771553 17.0907225,59.8282113 C17.1928345,59.8816237 17.2946323,59.9351932 17.3973727,59.987506 C17.5599665,60.0702953 17.7236599,60.1515136 17.8876675,60.2316323 C18.0006191,60.2867728 18.114199,60.3403423 18.2279361,60.3940689 C18.3372745,60.4457533 18.4466129,60.4972806 18.5565797,60.5478653 C18.6582204,60.5945226 18.7603324,60.6403945 18.8626015,60.6859522 C18.9735109,60.7354372 19.0847344,60.7839797 19.1962721,60.8320509 C19.2939855,60.8743095 19.3916988,60.9170395 19.4898834,60.9580414 C19.6816969,61.0386313 19.8741388,61.1176503 20.0678374,61.19447 C20.1529831,61.2282455 20.2386001,61.2602929 20.32406,61.2934401 C20.4536637,61.3435535 20.5834245,61.3933527 20.7138137,61.4418952 C20.8101132,61.477713 20.907041,61.5129023 21.0038118,61.5477775 C21.130902,61.5936494 21.2586205,61.6385786 21.3863391,61.6828796 C21.4771402,61.7142986 21.5679413,61.746189 21.6590567,61.7768226 C21.8639091,61.8456304 22.0693899,61.9127101 22.2761274,61.9775905 C22.346192,61.9995839 22.417042,62.0201634 22.4872636,62.0416854 C22.6401174,62.0883428 22.7932855,62.1343717 22.9470818,62.1786726 C23.0369404,62.2045934 23.1269561,62.2298857 23.2171288,62.255021 C23.3605569,62.2950803 23.5042992,62.3338829 23.6485128,62.3719 C23.7324017,62.3940504 23.8158194,62.4165151 23.8998654,62.43788 C24.1172855,62.4934918 24.335491,62.5470613 24.5547961,62.5981173 C24.6069518,62.6102137 24.6597359,62.6212104 24.7118915,62.6331496 C24.8900377,62.6736802 25.0688123,62.712797 25.2480581,62.7501857 C25.3308474,62.7674662 25.4137938,62.7841183 25.4965831,62.8006133 C25.6554065,62.8325037 25.8145441,62.8629802 25.9743102,62.892357 C26.0516011,62.9066527 26.1290491,62.9212626 26.2066543,62.9349299 C26.4355422,62.9753034 26.6650586,63.0139489 26.8955176,63.0494524 C26.929136,63.0544795 26.9627544,63.0588781 26.9963728,63.0640623 C27.1996543,63.0946959 27.4035641,63.1231302 27.6077881,63.1499935 C27.6849219,63.1600476 27.7625271,63.1694733 27.839818,63.178899 C28.0105807,63.1999498 28.1815005,63.2194296 28.3530487,63.2376527 C28.4270406,63.2455075 28.5007183,63.2536764 28.5747103,63.2610599 C28.8125527,63.2847813 29.0511806,63.3064605 29.290594,63.3248406 C29.3067748,63.3260974 29.3231128,63.3268829 29.3392936,63.3281397 C29.5651968,63.3449489 29.7915712,63.3592445 30.0185741,63.3713409 C30.092566,63.3754254 30.1665579,63.3785673 30.240707,63.3820234 C30.4194815,63.3903494 30.5984132,63.3971045 30.7781303,63.4024458 C30.8511797,63.4046451 30.924229,63.4071586 30.9972784,63.4087296 C31.2421901,63.4142279 31.487259,63.4179982 31.7335845,63.4179982 C31.9799101,63.4179982 32.2249789,63.4142279 32.4698907,63.4087296 C32.5430971,63.4070015 32.6159894,63.404488 32.6890387,63.4024458 C32.8685988,63.3971045 33.0476875,63.3901923 33.2264621,63.3820234 C33.3006111,63.3785673 33.3746031,63.3754254 33.448595,63.3713409 C33.6755978,63.3590874 33.9022865,63.345106 34.1278755,63.3281397 C34.1438992,63.3268829 34.1603942,63.3260974 34.1765751,63.3248406 C34.4159885,63.3064605 34.6544593,63.2847813 34.8924588,63.2610599 C34.9666078,63.2536764 35.0402856,63.2455075 35.1141204,63.2376527 C35.2856686,63.2194296 35.4567455,63.1997927 35.6273511,63.178899 C35.704642,63.1693162 35.78209,63.1600476 35.859381,63.1499935 C36.0639192,63.1234443 36.2675148,63.0946959 36.4707963,63.0640623 C36.5044147,63.0590352 36.5380331,63.0546366 36.5716515,63.0494524 C36.8021105,63.014106 37.0316268,62.9753034 37.2605148,62.9349299 C37.3381199,62.9211055 37.4154109,62.9066527 37.4928589,62.892357 C37.6524678,62.8629802 37.8116055,62.8323466 37.9704289,62.8006133 C38.0533753,62.7841183 38.1364788,62.7673091 38.2189538,62.7501857 C38.3981997,62.712797 38.5768172,62.6736802 38.7551204,62.6331496 C38.8074332,62.6212104 38.8600602,62.6102137 38.9122158,62.5981173 C39.1313639,62.5472184 39.3495694,62.4933347 39.5671465,62.43788 C39.6511926,62.416358 39.7347673,62.3938933 39.8184992,62.3719 C39.9627128,62.3338829 40.106455,62.2949232 40.2498831,62.255021 C40.3400559,62.2297286 40.4300716,62.2045934 40.5199301,62.1786726 C40.6737265,62.1342146 40.8268945,62.0883428 40.9797484,62.0416854 C41.0501271,62.0201634 41.12082,61.9995839 41.1908846,61.9775905 C41.397465,61.9128672 41.6031029,61.8456304 41.8079553,61.7768226 C41.8992277,61.746189 41.9898718,61.7142986 42.0806729,61.6828796 C42.2085486,61.6385786 42.3362671,61.5938065 42.4632002,61.5477775 C42.559971,61.5127452 42.6567417,61.477713 42.7531983,61.4418952 C42.8835875,61.3933527 43.0133483,61.3435535 43.142952,61.2934401 C43.2284119,61.2602929 43.314186,61.2282455 43.3991746,61.19447 C43.5927161,61.1176503 43.785158,61.0386313 43.9768144,60.9580414 C44.0751561,60.9167253 44.1730265,60.8739953 44.2708969,60.8317367 C44.3822776,60.7836655 44.4935011,60.735123 44.6042534,60.6857951 C44.7065225,60.6402374 44.8086345,60.5942084 44.9102752,60.5477082 C45.020242,60.4972806 45.1295804,60.4455962 45.2389188,60.3939118 C45.3526559,60.3401852 45.4662358,60.2866157 45.5791874,60.2314752 C45.7435092,60.1513565 45.9068884,60.0701382 46.0694822,59.9873489 C46.1722225,59.9350362 46.2740204,59.8814666 46.3759753,59.8280542 C46.4736886,59.7769982 46.571402,59.725628 46.6684869,59.6734723 C46.7734266,59.6172322 46.8780522,59.5605207 46.9823635,59.5030238 C47.0775633,59.4505539 47.1719777,59.3974557 47.266392,59.3440433 C47.3983521,59.26958 47.529841,59.1946455 47.6607014,59.1182972 C47.8006734,59.0366076 47.9403312,58.9544467 48.0788894,58.8707148 C48.1832007,58.8077196 48.2862553,58.7434676 48.3897812,58.6792155 C48.4766549,58.6253318 48.5636858,58.5714481 48.6499312,58.5166218 C48.7542425,58.4506417 48.8579255,58.3840333 48.9614513,58.3169536 C49.0469112,58.2614989 49.1318998,58.2051016 49.2168885,58.1487044 C57.7828292,52.4656213 63.4425051,42.7365462 63.4425051,31.7089206 C63.4425051,14.224517 49.2176739,-2.09610107e-13 31.7332703,-2.09610107e-13 Z M49.8562667,39.9000317 C50.2323531,40.6064897 50.217429,41.4568471 49.8173071,42.1497949 C49.4171851,42.8427427 48.6881053,43.2808818 47.8883327,43.3085305 L38.6157768,43.6297906 L33.7013615,51.4993275 C33.277361,52.1779796 32.5336714,52.5905121 31.7334274,52.5905121 C30.9331835,52.5905121 30.1894939,52.1779796 29.7654934,51.4993275 L24.8510781,43.6297906 L15.5785222,43.3085305 C14.7787495,43.2808818 14.0496698,42.8427427 13.6495478,42.1497949 C13.2494258,41.4568471 13.2345018,40.6064897 13.6105882,39.9000317 L17.9685716,31.7090777 L13.6105882,23.5181236 C13.2345018,22.8116656 13.2494258,21.9613082 13.6495478,21.2683604 C14.0496698,20.5754126 14.7787495,20.1372736 15.5785222,20.1096248 L24.8510781,19.7883647 L29.7654934,11.9188278 C30.1894939,11.2401757 30.9331835,10.8276432 31.7334274,10.8276432 C32.5336714,10.8276432 33.277361,11.2401757 33.7013615,11.9188278 L38.6157768,19.7883647 L47.8883327,20.1096248 C48.6881053,20.1372736 49.4171851,20.5754126 49.8173071,21.2683604 C50.217429,21.9613082 50.2323531,22.8116656 49.8562667,23.5181236 L45.4982833,31.7090777 L49.8562667,39.9000317 Z" id="Shape"></path>
                </g>
            </g>
        </g>
    </g>
</svg>