<svg width="32px" height="32px" viewBox="0 0 32 32" version="1.1" xmlns="http://www.w3.org/2000/svg" xmlns:xlink="http://www.w3.org/1999/xlink">
    <path d="M15.9010309,31.9666667 C7.19175258,31.9666667 0.0989690722,24.8 0.0989690722,16 C0.0989690722,7.2 7.19175258,0 15.9010309,0 C24.6103093,0 31.7030928,7.16666667 31.7030928,16 C31.7030928,24.8333333 24.6103093,31.9666667 15.9010309,31.9666667 Z M15.9010309,1.33333333 C7.91752577,1.33333333 1.4185567,7.9 1.4185567,16 C1.4185567,24.1 7.91752577,30.6333333 15.9010309,30.6333333 C23.8845361,30.6333333 30.3835052,24.0666667 30.3835052,16 C30.3835052,7.93333333 23.8845361,1.33333333 15.9010309,1.33333333 Z" fill="#d0963c"></path>
    <path d="M24.3463918,13.7666667 C24.2804124,13.7666667 24.2474227,13.7666667 24.1814433,13.7333333 L19.0680412,12.5 C18.7051546,12.4 18.5072165,12.0666667 18.5731959,11.7 C18.6721649,11.3333333 19.0020619,11.1333333 19.3649485,11.2 L24.4783505,12.4333333 C24.8412371,12.5333333 25.0391753,12.8666667 24.9731959,13.2333333 C24.9072165,13.5666667 24.643299,13.7666667 24.3463918,13.7666667 Z" fill="#d0963c"></path>
    <path d="M6.82886598,13.7666667 C6.53195876,13.7666667 6.26804124,13.5666667 6.20206186,13.2666667 C6.10309278,12.9 6.33402062,12.5333333 6.69690722,12.4666667 L11.8103093,11.2333333 C12.1731959,11.1333333 12.5360825,11.3666667 12.6020619,11.7333333 C12.7010309,12.1 12.4701031,12.4666667 12.1072165,12.5333333 L6.99381443,13.7666667 C6.92783505,13.7666667 6.89484536,13.7666667 6.82886598,13.7666667 Z" fill="#d0963c"></path>
    <path d="M22.7958763,23.1333333 C22.6309278,23.1333333 22.4659794,23.0666667 22.3340206,22.9333333 C20.6845361,21.2666667 18.3092784,20.2 15.8680412,20.0333333 C13.3278351,19.8666667 11.0515464,20.6333333 9.50103093,22.2333333 C9.2371134,22.5 8.84123711,22.5 8.57731959,22.2333333 C8.31340206,21.9666667 8.31340206,21.5666667 8.57731959,21.3 C10.4247423,19.4333333 13.0639175,18.5333333 15.9670103,18.7333333 C18.7381443,18.9333333 21.4103093,20.1333333 23.2907216,22.0333333 C23.5546392,22.3 23.5546392,22.7 23.2907216,22.9666667 C23.1257732,23.0666667 22.9608247,23.1333333 22.7958763,23.1333333 Z" fill="#d0963c"></path>
</svg>