<?xml version="1.0" encoding="UTF-8"?>
<svg width="43px" height="43px" viewBox="0 0 43 43" version="1.1" xmlns="http://www.w3.org/2000/svg" xmlns:xlink="http://www.w3.org/1999/xlink">
    <title>E167163F-4554-429B-B4B5-A3A64E48D235@1x</title>
    <g id="Designs" stroke="none" stroke-width="1" fill="none" fill-rule="evenodd">
        <g id="Success-for-Password" transform="translate(-1058.000000, -263.000000)" fill="#8BA6B9" fill-rule="nonzero">
            <path d="M1079.5,263 C1067.64442,263 1058,272.644425 1058,284.5 C1058,296.355576 1067.64442,306 1079.5,306 C1091.35558,306 1101,296.355576 1101,284.5 C1101,272.644425 1091.35558,263 1079.5,263 Z M1090.39697,279.943848 L1078.75103,291.589463 C1078.40164,291.938851 1077.94301,292.114694 1077.48438,292.114694 C1077.02574,292.114694 1076.56711,291.938851 1076.21772,291.589463 L1070.39491,285.766656 C1069.69417,285.066239 1069.69417,283.933762 1070.39491,283.233346 C1071.09533,282.532601 1072.22748,282.532601 1072.92822,283.233346 L1077.48438,287.789498 L1087.86366,277.410538 C1088.56408,276.709794 1089.69623,276.709794 1090.39697,277.410538 C1091.09739,278.110955 1091.09739,279.243103 1090.39697,279.943848 Z" id="Check"></path>
        </g>
    </g>
</svg>